<?xml version="1.0" encoding="utf-8"?>
<!-- Generator: Adobe Illustrator 27.5.0, SVG Export Plug-In . SVG Version: 6.00 Build 0)  -->
<svg version="1.1" xmlns="http://www.w3.org/2000/svg" xmlns:xlink="http://www.w3.org/1999/xlink" x="0px" y="0px"
	 viewBox="0 0 1500 500" style="enable-background:new 0 0 1500 500;" xml:space="preserve">
<g id="BACKGROUND">
	<g>
		<defs>
			<rect id="SVGID_1_" width="1500" height="500"/>
		</defs>
		<clipPath id="SVGID_00000093874472036252662910000002522132677653415850_">
			<use xlink:href="#SVGID_1_"  style="overflow:visible;"/>
		</clipPath>
		
			<rect style="clip-path:url(#SVGID_00000093874472036252662910000002522132677653415850_);fill:#0A1938;" width="1500" height="500"/>
		<g style="clip-path:url(#SVGID_00000093874472036252662910000002522132677653415850_);">
			<path style="fill:#091736;" d="M-45.78,199.593c8.552-0.609,17.104-1.096,25.656-1.515l12.828-0.607l12.828-0.493
				c17.104-0.669,34.208-1.097,51.313-1.428c34.208-0.6,68.417-0.918,102.625,0.099l51.313,1.547
				c17.104,0.51,34.208,0.766,51.313,0.795c8.552,0.008,17.104-0.02,25.656-0.089l25.656-0.325l25.656-0.534l25.656-0.646
				c34.208-0.895,68.417-1.529,102.625-1.377c17.104,0.017,34.208,0.244,51.312,0.517l51.313,0.95
				c34.208,0.432,68.417,1.26,102.625-1.212c8.552-0.336,17.104-0.364,25.656-0.127c8.552,0.223,17.104,0.804,25.656,1.409
				c8.552,0.609,17.104,1.165,25.656,1.341c8.552,0.179,17.104,0.079,25.656-0.087c17.104-0.359,34.208-1.425,51.313-2.111
				c17.104-0.728,34.208-0.833,51.313-0.585c17.104,0.221,34.208,0.941,51.313,1.483c17.104,0.532,34.208,0.794,51.313,0.545
				c17.104-0.191,34.208-0.627,51.313-1.289l51.313-2.17c34.208-1.509,68.417-2.087,102.625-1.415
				c17.104,0.332,34.208,1.028,51.313,1.945l51.313,2.88c17.104,0.875,34.208,1.499,51.313,1.751
				c17.104,0.238,34.208,0.171,51.313,0.24c68.417,0.127,136.833-0.038,205.25-0.992v3c-68.417-0.953-136.833-1.119-205.25-0.992
				c-17.104,0.07-34.208,0.003-51.313,0.24c-17.104,0.252-34.208,0.875-51.313,1.751l-51.313,2.88
				c-17.104,0.917-34.208,1.613-51.313,1.945c-34.208,0.671-68.417,0.094-102.625-1.415l-51.313-2.17
				c-17.104-0.662-34.208-1.098-51.313-1.289c-17.104-0.249-34.208,0.013-51.313,0.545c-17.104,0.542-34.208,1.262-51.313,1.483
				c-17.104,0.248-34.208,0.143-51.313-0.585c-17.104-0.686-34.208-1.752-51.313-2.111c-8.552-0.167-17.104-0.266-25.656-0.087
				c-8.552,0.177-17.104,0.732-25.656,1.341c-8.552,0.606-17.104,1.187-25.656,1.409c-8.552,0.237-17.104,0.209-25.656-0.127
				c-34.208-2.473-68.417-1.645-102.625-1.212l-51.313,0.95c-17.104,0.273-34.208,0.5-51.312,0.517
				c-34.208,0.152-68.417-0.482-102.625-1.377l-25.656-0.646l-25.656-0.534l-25.656-0.325c-8.552-0.07-17.104-0.098-25.656-0.09
				c-17.104,0.029-34.208,0.285-51.313,0.795l-51.313,1.548c-34.208,1.017-68.417,0.699-102.625,0.099
				c-17.104-0.331-34.208-0.759-51.313-1.428l-12.828-0.493l-12.828-0.607C-28.676,200.689-37.228,200.202-45.78,199.593z"/>
			<path style="fill:#091736;" d="M-45.78,153.593c8.552-0.609,17.104-1.096,25.656-1.515l12.828-0.607l12.828-0.493
				c17.104-0.669,34.208-1.097,51.313-1.428c34.208-0.6,68.417-0.918,102.625,0.099l51.313,1.547
				c17.104,0.51,34.208,0.766,51.313,0.795c8.552,0.008,17.104-0.02,25.656-0.089l25.656-0.325l25.656-0.534l25.656-0.646
				c34.208-0.895,68.417-1.529,102.625-1.377c17.104,0.017,34.208,0.244,51.312,0.517l51.313,0.95
				c34.208,0.433,68.417,1.26,102.625-1.212c8.552-0.336,17.104-0.364,25.656-0.127c8.552,0.223,17.104,0.804,25.656,1.409
				c8.552,0.609,17.104,1.165,25.656,1.341c8.552,0.179,17.104,0.079,25.656-0.087c17.104-0.359,34.208-1.425,51.313-2.111
				c17.104-0.728,34.208-0.833,51.313-0.585c17.104,0.221,34.208,0.941,51.313,1.483c17.104,0.532,34.208,0.794,51.313,0.545
				c17.104-0.191,34.208-0.627,51.313-1.289l51.313-2.17c34.208-1.509,68.417-2.087,102.625-1.415
				c17.104,0.332,34.208,1.029,51.313,1.945l51.313,2.88c17.104,0.875,34.208,1.499,51.313,1.751
				c17.104,0.238,34.208,0.171,51.313,0.24c68.417,0.127,136.833-0.038,205.25-0.992v3c-68.417-0.953-136.833-1.119-205.25-0.992
				c-17.104,0.07-34.208,0.003-51.313,0.24c-17.104,0.252-34.208,0.875-51.313,1.751l-51.313,2.88
				c-17.104,0.917-34.208,1.613-51.313,1.945c-34.208,0.671-68.417,0.093-102.625-1.415l-51.313-2.17
				c-17.104-0.662-34.208-1.098-51.313-1.289c-17.104-0.249-34.208,0.013-51.313,0.545c-17.104,0.542-34.208,1.262-51.313,1.483
				c-17.104,0.248-34.208,0.143-51.313-0.585c-17.104-0.686-34.208-1.752-51.313-2.111c-8.552-0.167-17.104-0.266-25.656-0.087
				c-8.552,0.177-17.104,0.732-25.656,1.341c-8.552,0.606-17.104,1.187-25.656,1.409c-8.552,0.237-17.104,0.209-25.656-0.127
				c-34.208-2.473-68.417-1.645-102.625-1.212l-51.313,0.95c-17.104,0.273-34.208,0.5-51.312,0.517
				c-34.208,0.152-68.417-0.482-102.625-1.377l-25.656-0.646l-25.656-0.534l-25.656-0.325c-8.552-0.07-17.104-0.098-25.656-0.089
				c-17.104,0.029-34.208,0.285-51.313,0.795l-51.313,1.547c-34.208,1.017-68.417,0.699-102.625,0.099
				c-17.104-0.331-34.208-0.759-51.313-1.428l-12.828-0.493l-12.828-0.607C-28.676,154.689-37.228,154.202-45.78,153.593z"/>
			<path style="fill:#091736;" d="M-45.78,107.593c8.552-0.609,17.104-1.096,25.656-1.515l12.828-0.607l12.828-0.493
				c17.104-0.669,34.208-1.097,51.313-1.428c34.208-0.6,68.417-0.918,102.625,0.099l51.313,1.548
				c17.104,0.51,34.208,0.766,51.313,0.795c8.552,0.008,17.104-0.02,25.656-0.09l25.656-0.325l25.656-0.534l25.656-0.646
				c34.208-0.895,68.417-1.529,102.625-1.377c17.104,0.017,34.208,0.244,51.312,0.517l51.313,0.95
				c34.208,0.432,68.417,1.26,102.625-1.212c8.552-0.336,17.104-0.364,25.656-0.127c8.552,0.223,17.104,0.804,25.656,1.409
				c8.552,0.609,17.104,1.165,25.656,1.341c8.552,0.179,17.104,0.08,25.656-0.087c17.104-0.359,34.208-1.425,51.313-2.111
				c17.104-0.728,34.208-0.833,51.313-0.585c17.104,0.221,34.208,0.941,51.313,1.483c17.104,0.532,34.208,0.794,51.313,0.545
				c17.104-0.191,34.208-0.627,51.313-1.289l51.313-2.17c34.208-1.509,68.417-2.087,102.625-1.415
				c17.104,0.332,34.208,1.028,51.313,1.945l51.313,2.88c17.104,0.875,34.208,1.499,51.313,1.751
				c17.104,0.238,34.208,0.171,51.313,0.24c68.417,0.127,136.833-0.038,205.25-0.992v3c-68.417-0.953-136.833-1.119-205.25-0.992
				c-17.104,0.069-34.208,0.003-51.313,0.24c-17.104,0.252-34.208,0.875-51.313,1.751l-51.313,2.88
				c-17.104,0.917-34.208,1.613-51.313,1.945c-34.208,0.671-68.417,0.093-102.625-1.415l-51.313-2.17
				c-17.104-0.662-34.208-1.098-51.313-1.289c-17.104-0.249-34.208,0.013-51.313,0.545c-17.104,0.542-34.208,1.262-51.313,1.483
				c-17.104,0.248-34.208,0.143-51.313-0.585c-17.104-0.686-34.208-1.752-51.313-2.111c-8.552-0.167-17.104-0.266-25.656-0.087
				c-8.552,0.177-17.104,0.732-25.656,1.341c-8.552,0.606-17.104,1.187-25.656,1.409c-8.552,0.237-17.104,0.209-25.656-0.126
				c-34.208-2.473-68.417-1.645-102.625-1.213l-51.313,0.95c-17.104,0.273-34.208,0.5-51.312,0.517
				c-34.208,0.151-68.417-0.482-102.625-1.377l-25.656-0.646l-25.656-0.534l-25.656-0.325c-8.552-0.07-17.104-0.098-25.656-0.09
				c-17.104,0.029-34.208,0.285-51.313,0.795l-51.313,1.547c-34.208,1.017-68.417,0.699-102.625,0.099
				c-17.104-0.331-34.208-0.759-51.313-1.428l-12.828-0.493l-12.828-0.607C-28.676,108.689-37.228,108.202-45.78,107.593z"/>
			<path style="fill:#091736;" d="M-45.78,61.593c8.552-0.609,17.104-1.096,25.656-1.515l12.828-0.607l12.828-0.493
				c17.104-0.668,34.208-1.097,51.313-1.428c34.208-0.6,68.417-0.918,102.625,0.099l51.313,1.547
				c17.104,0.51,34.208,0.766,51.313,0.795c8.552,0.008,17.104-0.02,25.656-0.09l25.656-0.325l25.656-0.534l25.656-0.646
				c34.208-0.895,68.417-1.529,102.625-1.377c17.104,0.017,34.208,0.244,51.312,0.517l51.313,0.95
				c34.208,0.432,68.417,1.26,102.625-1.212c8.552-0.336,17.104-0.364,25.656-0.126c8.552,0.222,17.104,0.803,25.656,1.409
				c8.552,0.609,17.104,1.165,25.656,1.341c8.552,0.179,17.104,0.079,25.656-0.087c17.104-0.359,34.208-1.425,51.313-2.111
				c17.104-0.728,34.208-0.833,51.313-0.585c17.104,0.221,34.208,0.941,51.313,1.483c17.104,0.532,34.208,0.794,51.313,0.545
				c17.104-0.191,34.208-0.627,51.313-1.289l51.313-2.17c34.208-1.509,68.417-2.087,102.625-1.415
				c17.104,0.332,34.208,1.028,51.313,1.945l51.313,2.88c17.104,0.875,34.208,1.499,51.313,1.751
				c17.104,0.238,34.208,0.171,51.313,0.24c68.417,0.127,136.833-0.038,205.25-0.992v3c-68.417-0.953-136.833-1.119-205.25-0.992
				c-17.104,0.07-34.208,0.003-51.313,0.24c-17.104,0.252-34.208,0.875-51.313,1.751l-51.313,2.88
				c-17.104,0.917-34.208,1.613-51.313,1.945c-34.208,0.671-68.417,0.093-102.625-1.415l-51.313-2.17
				c-17.104-0.662-34.208-1.098-51.313-1.289c-17.104-0.249-34.208,0.013-51.313,0.545c-17.104,0.542-34.208,1.262-51.313,1.483
				c-17.104,0.248-34.208,0.143-51.313-0.585c-17.104-0.686-34.208-1.752-51.313-2.111c-8.552-0.167-17.104-0.266-25.656-0.087
				c-8.552,0.177-17.104,0.732-25.656,1.341c-8.552,0.606-17.104,1.187-25.656,1.409c-8.552,0.237-17.104,0.209-25.656-0.127
				c-34.208-2.473-68.417-1.645-102.625-1.212l-51.313,0.95c-17.104,0.273-34.208,0.5-51.312,0.517
				c-34.208,0.152-68.417-0.482-102.625-1.377l-25.656-0.646l-25.656-0.534l-25.656-0.325c-8.552-0.07-17.104-0.098-25.656-0.09
				c-17.104,0.029-34.208,0.285-51.313,0.795l-51.313,1.548c-34.208,1.017-68.417,0.699-102.625,0.099
				c-17.104-0.331-34.208-0.759-51.313-1.428l-12.828-0.493l-12.828-0.607C-28.676,62.689-37.228,62.202-45.78,61.593z"/>
			<path style="fill:#091736;" d="M-45.78,15.593c8.552-0.609,17.104-1.096,25.656-1.515l12.828-0.607l12.828-0.493
				c17.104-0.669,34.208-1.097,51.313-1.428c34.208-0.6,68.417-0.918,102.625,0.099l51.313,1.547
				c17.104,0.51,34.208,0.766,51.313,0.795c8.552,0.008,17.104-0.02,25.656-0.09l25.656-0.325l25.656-0.534l25.656-0.646
				c34.208-0.895,68.417-1.529,102.625-1.377c17.104,0.017,34.208,0.244,51.312,0.517l51.313,0.95
				c34.208,0.432,68.417,1.26,102.625-1.212c8.552-0.336,17.104-0.364,25.656-0.127c8.552,0.223,17.104,0.804,25.656,1.409
				c8.552,0.609,17.104,1.165,25.656,1.341c8.552,0.179,17.104,0.08,25.656-0.087c17.104-0.359,34.208-1.425,51.313-2.111
				c17.104-0.728,34.208-0.833,51.313-0.585c17.104,0.221,34.208,0.941,51.313,1.483c17.104,0.532,34.208,0.794,51.313,0.545
				c17.104-0.191,34.208-0.627,51.313-1.289l51.313-2.17c34.208-1.509,68.417-2.087,102.625-1.415
				c17.104,0.332,34.208,1.028,51.313,1.945l51.313,2.88c17.104,0.875,34.208,1.499,51.313,1.751
				c17.104,0.238,34.208,0.171,51.313,0.24c68.417,0.127,136.833-0.038,205.25-0.992v3c-68.417-0.953-136.833-1.119-205.25-0.992
				c-17.104,0.069-34.208,0.003-51.313,0.24c-17.104,0.252-34.208,0.875-51.313,1.751l-51.313,2.88
				c-17.104,0.917-34.208,1.613-51.313,1.945c-34.208,0.671-68.417,0.094-102.625-1.416l-51.313-2.17
				c-17.104-0.662-34.208-1.098-51.313-1.289c-17.104-0.249-34.208,0.013-51.313,0.545c-17.104,0.542-34.208,1.262-51.313,1.483
				c-17.104,0.248-34.208,0.143-51.313-0.585c-17.104-0.686-34.208-1.752-51.313-2.111c-8.552-0.167-17.104-0.266-25.656-0.087
				c-8.552,0.177-17.104,0.732-25.656,1.341c-8.552,0.606-17.104,1.187-25.656,1.409c-8.552,0.237-17.104,0.209-25.656-0.127
				c-34.208-2.473-68.417-1.645-102.625-1.212l-51.313,0.95c-17.104,0.273-34.208,0.5-51.312,0.517
				c-34.208,0.152-68.417-0.482-102.625-1.377l-25.656-0.646l-25.656-0.534l-25.656-0.325c-8.552-0.07-17.104-0.098-25.656-0.09
				c-17.104,0.029-34.208,0.285-51.313,0.795l-51.313,1.547c-34.208,1.017-68.417,0.699-102.625,0.099
				c-17.104-0.331-34.208-0.759-51.313-1.428l-12.828-0.493l-12.828-0.607C-28.676,16.689-37.228,16.202-45.78,15.593z"/>
			<path style="fill:#091736;" d="M1596.22,176.593c-8.552,0.609-17.104,1.096-25.656,1.515l-12.828,0.607l-12.828,0.493
				c-17.104,0.669-34.208,1.097-51.313,1.428c-34.208,0.6-68.417,0.918-102.625-0.099l-51.313-1.547
				c-17.104-0.51-34.208-0.766-51.313-0.795c-8.552-0.008-17.104,0.02-25.656,0.089l-25.656,0.325l-25.656,0.534l-25.656,0.646
				c-34.208,0.895-68.417,1.529-102.625,1.377c-17.104-0.017-34.208-0.244-51.313-0.517l-51.313-0.95
				c-34.208-0.433-68.417-1.261-102.625,1.212c-8.552,0.336-17.104,0.364-25.656,0.127c-8.552-0.223-17.104-0.804-25.656-1.409
				c-8.552-0.609-17.104-1.165-25.656-1.341c-8.552-0.179-17.104-0.079-25.656,0.087c-17.104,0.359-34.208,1.425-51.313,2.111
				c-17.104,0.728-34.208,0.833-51.313,0.585c-17.104-0.221-34.208-0.941-51.313-1.483c-17.104-0.532-34.208-0.794-51.313-0.545
				c-17.104,0.191-34.208,0.627-51.313,1.289l-51.312,2.17c-34.208,1.509-68.417,2.087-102.625,1.415
				c-17.104-0.332-34.208-1.029-51.313-1.945l-51.313-2.88c-17.104-0.875-34.208-1.499-51.313-1.751
				c-17.104-0.238-34.208-0.171-51.313-0.24c-68.417-0.127-136.833,0.038-205.25,0.992v-3c68.417,0.953,136.833,1.119,205.25,0.992
				c17.104-0.069,34.208-0.003,51.313-0.24c17.104-0.252,34.208-0.875,51.313-1.751l51.313-2.88
				c17.104-0.917,34.208-1.613,51.313-1.945c34.208-0.671,68.417-0.093,102.625,1.415l51.312,2.17
				c17.104,0.662,34.208,1.098,51.313,1.289c17.104,0.249,34.208-0.013,51.313-0.545c17.104-0.542,34.208-1.262,51.313-1.483
				c17.104-0.248,34.208-0.143,51.313,0.585c17.104,0.686,34.208,1.752,51.313,2.111c8.552,0.167,17.104,0.266,25.656,0.087
				c8.552-0.177,17.104-0.732,25.656-1.341c8.552-0.606,17.104-1.187,25.656-1.409c8.552-0.237,17.104-0.209,25.656,0.127
				c34.208,2.473,68.417,1.645,102.625,1.212l51.313-0.95c17.104-0.273,34.208-0.5,51.313-0.517
				c34.208-0.152,68.417,0.482,102.625,1.377l25.656,0.646l25.656,0.534l25.656,0.325c8.552,0.07,17.104,0.098,25.656,0.089
				c17.104-0.029,34.208-0.285,51.313-0.795l51.313-1.547c34.208-1.017,68.417-0.699,102.625-0.099
				c17.104,0.331,34.208,0.759,51.313,1.428l12.828,0.493l12.828,0.607C1579.116,175.497,1587.668,175.984,1596.22,176.593z"/>
			<path style="fill:#091736;" d="M1596.22,130.593c-8.552,0.609-17.104,1.096-25.656,1.515l-12.828,0.607l-12.828,0.493
				c-17.104,0.669-34.208,1.097-51.313,1.428c-34.208,0.6-68.417,0.918-102.625-0.099l-51.313-1.547
				c-17.104-0.51-34.208-0.766-51.313-0.795c-8.552-0.008-17.104,0.02-25.656,0.089l-25.656,0.325l-25.656,0.534l-25.656,0.646
				c-34.208,0.895-68.417,1.529-102.625,1.377c-17.104-0.017-34.208-0.244-51.313-0.517l-51.313-0.95
				c-34.208-0.432-68.417-1.26-102.625,1.212c-8.552,0.336-17.104,0.364-25.656,0.127c-8.552-0.223-17.104-0.804-25.656-1.409
				c-8.552-0.609-17.104-1.165-25.656-1.341c-8.552-0.179-17.104-0.079-25.656,0.087c-17.104,0.359-34.208,1.425-51.313,2.111
				c-17.104,0.728-34.208,0.833-51.313,0.585c-17.104-0.221-34.208-0.941-51.313-1.483c-17.104-0.532-34.208-0.794-51.313-0.545
				c-17.104,0.191-34.208,0.627-51.313,1.289l-51.312,2.17c-34.208,1.509-68.417,2.087-102.625,1.415
				c-17.104-0.332-34.208-1.028-51.313-1.945l-51.313-2.88c-17.104-0.875-34.208-1.499-51.313-1.751
				c-17.104-0.238-34.208-0.171-51.313-0.24c-68.417-0.127-136.833,0.038-205.25,0.992v-3c68.417,0.953,136.833,1.119,205.25,0.992
				c17.104-0.069,34.208-0.003,51.313-0.24c17.104-0.252,34.208-0.875,51.313-1.751l51.313-2.88
				c17.104-0.917,34.208-1.613,51.313-1.945c34.208-0.671,68.417-0.094,102.625,1.415l51.312,2.17
				c17.104,0.662,34.208,1.098,51.313,1.289c17.104,0.249,34.208-0.013,51.313-0.545c17.104-0.542,34.208-1.262,51.313-1.483
				c17.104-0.248,34.208-0.143,51.313,0.585c17.104,0.686,34.208,1.752,51.313,2.111c8.552,0.167,17.104,0.266,25.656,0.087
				c8.552-0.177,17.104-0.732,25.656-1.341c8.552-0.606,17.104-1.187,25.656-1.409c8.552-0.237,17.104-0.209,25.656,0.127
				c34.208,2.473,68.417,1.645,102.625,1.212l51.313-0.95c17.104-0.273,34.208-0.5,51.313-0.517
				c34.208-0.152,68.417,0.482,102.625,1.377l25.656,0.646l25.656,0.534l25.656,0.325c8.552,0.07,17.104,0.098,25.656,0.089
				c17.104-0.029,34.208-0.285,51.313-0.795l51.313-1.548c34.208-1.017,68.417-0.699,102.625-0.099
				c17.104,0.331,34.208,0.759,51.313,1.428l12.828,0.493l12.828,0.607C1579.116,129.497,1587.668,129.984,1596.22,130.593z"/>
			<path style="fill:#091736;" d="M1596.22,84.593c-8.552,0.609-17.104,1.096-25.656,1.515l-12.828,0.607l-12.828,0.493
				c-17.104,0.669-34.208,1.097-51.313,1.428c-34.208,0.6-68.417,0.918-102.625-0.099l-51.313-1.548
				c-17.104-0.51-34.208-0.766-51.313-0.795c-8.552-0.008-17.104,0.02-25.656,0.09l-25.656,0.325l-25.656,0.534l-25.656,0.646
				c-34.208,0.895-68.417,1.529-102.625,1.377c-17.104-0.017-34.208-0.244-51.313-0.517L980.47,87.7
				c-34.208-0.432-68.417-1.26-102.625,1.212c-8.552,0.336-17.104,0.364-25.656,0.127c-8.552-0.222-17.104-0.803-25.656-1.409
				c-8.552-0.609-17.104-1.165-25.656-1.341c-8.552-0.179-17.104-0.08-25.656,0.087c-17.104,0.359-34.208,1.425-51.313,2.111
				c-17.104,0.728-34.208,0.833-51.313,0.585c-17.104-0.221-34.208-0.941-51.313-1.483c-17.104-0.532-34.208-0.794-51.313-0.545
				c-17.104,0.191-34.208,0.627-51.313,1.289l-51.312,2.17c-34.208,1.509-68.417,2.087-102.625,1.415
				c-17.104-0.332-34.208-1.028-51.313-1.945l-51.313-2.88c-17.104-0.875-34.208-1.499-51.313-1.751
				c-17.104-0.238-34.208-0.171-51.313-0.24C91.053,84.974,22.637,85.14-45.78,86.093v-3c68.417,0.953,136.833,1.119,205.25,0.992
				c17.104-0.07,34.208-0.003,51.313-0.24c17.104-0.252,34.208-0.875,51.313-1.751l51.313-2.88
				c17.104-0.917,34.208-1.613,51.313-1.945c34.208-0.671,68.417-0.094,102.625,1.415l51.312,2.17
				c17.104,0.662,34.208,1.098,51.313,1.289c17.104,0.249,34.208-0.013,51.313-0.545c17.104-0.542,34.208-1.262,51.313-1.483
				c17.104-0.248,34.208-0.143,51.313,0.585c17.104,0.686,34.208,1.752,51.313,2.111c8.552,0.167,17.104,0.266,25.656,0.087
				c8.552-0.177,17.104-0.732,25.656-1.341c8.552-0.606,17.104-1.187,25.656-1.409c8.552-0.237,17.104-0.209,25.656,0.127
				c34.208,2.473,68.417,1.645,102.625,1.212l51.313-0.95c17.104-0.273,34.208-0.5,51.313-0.517
				c34.208-0.152,68.417,0.482,102.625,1.377l25.656,0.646l25.656,0.534l25.656,0.325c8.552,0.07,17.104,0.098,25.656,0.09
				c17.104-0.029,34.208-0.285,51.313-0.795l51.313-1.548c34.208-1.017,68.417-0.699,102.625-0.099
				c17.104,0.331,34.208,0.759,51.313,1.428l12.828,0.493l12.828,0.607C1579.116,83.497,1587.668,83.984,1596.22,84.593z"/>
			<path style="fill:#091736;" d="M1596.22,38.593c-8.552,0.609-17.104,1.096-25.656,1.515l-12.828,0.607l-12.828,0.493
				c-17.104,0.669-34.208,1.097-51.313,1.428c-34.208,0.6-68.417,0.918-102.625-0.099l-51.313-1.548
				c-17.104-0.51-34.208-0.766-51.313-0.795c-8.552-0.008-17.104,0.02-25.656,0.09l-25.656,0.325l-25.656,0.534l-25.656,0.646
				c-34.208,0.895-68.417,1.529-102.625,1.377c-17.104-0.017-34.208-0.244-51.313-0.517L980.47,41.7
				c-34.208-0.432-68.417-1.26-102.625,1.212c-8.552,0.336-17.104,0.364-25.656,0.127c-8.552-0.223-17.104-0.804-25.656-1.409
				c-8.552-0.609-17.104-1.165-25.656-1.341c-8.552-0.179-17.104-0.08-25.656,0.087c-17.104,0.359-34.208,1.425-51.313,2.111
				c-17.104,0.728-34.208,0.833-51.313,0.585c-17.104-0.221-34.208-0.941-51.313-1.483c-17.104-0.532-34.208-0.794-51.313-0.545
				c-17.104,0.191-34.208,0.627-51.313,1.289l-51.312,2.17c-34.208,1.509-68.417,2.087-102.625,1.415
				c-17.104-0.332-34.208-1.028-51.313-1.945l-51.313-2.88c-17.104-0.875-34.208-1.499-51.313-1.751
				c-17.104-0.238-34.208-0.171-51.313-0.24C91.053,38.974,22.637,39.14-45.78,40.093v-3c68.417,0.953,136.833,1.119,205.25,0.992
				c17.104-0.069,34.208-0.003,51.313-0.24c17.104-0.252,34.208-0.875,51.313-1.751l51.313-2.88
				c17.104-0.917,34.208-1.613,51.313-1.945c34.208-0.671,68.417-0.094,102.625,1.415l51.312,2.17
				c17.104,0.662,34.208,1.098,51.313,1.289c17.104,0.249,34.208-0.013,51.313-0.545c17.104-0.542,34.208-1.262,51.313-1.483
				c17.104-0.248,34.208-0.143,51.313,0.585c17.104,0.686,34.208,1.752,51.313,2.111c8.552,0.167,17.104,0.266,25.656,0.087
				c8.552-0.177,17.104-0.732,25.656-1.341c8.552-0.606,17.104-1.187,25.656-1.409c8.552-0.237,17.104-0.209,25.656,0.127
				c34.208,2.473,68.417,1.645,102.625,1.212l51.313-0.95c17.104-0.273,34.208-0.5,51.313-0.517
				c34.208-0.152,68.417,0.482,102.625,1.377l25.656,0.646l25.656,0.534l25.656,0.325c8.552,0.07,17.104,0.098,25.656,0.09
				c17.104-0.029,34.208-0.285,51.313-0.795l51.313-1.547c34.208-1.017,68.417-0.699,102.625-0.099
				c17.104,0.331,34.208,0.759,51.313,1.428l12.828,0.493l12.828,0.607C1579.116,37.497,1587.668,37.984,1596.22,38.593z"/>
		</g>
		<g style="clip-path:url(#SVGID_00000093874472036252662910000002522132677653415850_);">
			<path style="fill:#0B1B3D;" d="M-45.78,406.083c8.552-0.609,17.104-1.096,25.656-1.515l12.828-0.607l12.828-0.493
				c17.104-0.669,34.208-1.097,51.313-1.428c34.208-0.6,68.417-0.918,102.625,0.099l51.313,1.547
				c17.104,0.51,34.208,0.766,51.313,0.795c8.552,0.009,17.104-0.02,25.656-0.089l25.656-0.325l25.656-0.534l25.656-0.646
				c34.208-0.895,68.417-1.529,102.625-1.377c17.104,0.017,34.208,0.244,51.312,0.517l51.313,0.95
				c34.208,0.432,68.417,1.26,102.625-1.212c8.552-0.336,17.104-0.364,25.656-0.127c8.552,0.223,17.104,0.804,25.656,1.409
				c8.552,0.609,17.104,1.165,25.656,1.341c8.552,0.179,17.104,0.08,25.656-0.087c17.104-0.359,34.208-1.425,51.313-2.111
				c17.104-0.728,34.208-0.833,51.313-0.585c17.104,0.221,34.208,0.941,51.313,1.483c17.104,0.532,34.208,0.794,51.313,0.545
				c17.104-0.191,34.208-0.627,51.313-1.289l51.313-2.17c34.208-1.509,68.417-2.087,102.625-1.415
				c17.104,0.332,34.208,1.028,51.313,1.945l51.313,2.88c17.104,0.875,34.208,1.499,51.313,1.751
				c17.104,0.238,34.208,0.171,51.313,0.24c68.417,0.127,136.833-0.038,205.25-0.992v3c-68.417-0.953-136.833-1.119-205.25-0.992
				c-17.104,0.069-34.208,0.003-51.313,0.24c-17.104,0.252-34.208,0.875-51.313,1.751l-51.313,2.88
				c-17.104,0.917-34.208,1.613-51.313,1.945c-34.208,0.671-68.417,0.094-102.625-1.415l-51.313-2.17
				c-17.104-0.662-34.208-1.098-51.313-1.289c-17.104-0.249-34.208,0.013-51.313,0.545c-17.104,0.542-34.208,1.262-51.313,1.483
				c-17.104,0.248-34.208,0.143-51.313-0.585c-17.104-0.686-34.208-1.752-51.313-2.111c-8.552-0.167-17.104-0.266-25.656-0.087
				c-8.552,0.177-17.104,0.732-25.656,1.341c-8.552,0.606-17.104,1.187-25.656,1.409c-8.552,0.237-17.104,0.209-25.656-0.127
				c-34.208-2.473-68.417-1.645-102.625-1.212l-51.313,0.95c-17.104,0.273-34.208,0.5-51.312,0.517
				c-34.208,0.151-68.417-0.482-102.625-1.377l-25.656-0.646l-25.656-0.534l-25.656-0.325c-8.552-0.07-17.104-0.098-25.656-0.089
				c-17.104,0.029-34.208,0.285-51.313,0.795l-51.313,1.547c-34.208,1.017-68.417,0.699-102.625,0.099
				c-17.104-0.331-34.208-0.759-51.313-1.428l-12.828-0.493l-12.828-0.607C-28.676,407.179-37.228,406.692-45.78,406.083z"/>
			<path style="fill:#0B1B3D;" d="M-45.78,360.082c8.552-0.609,17.104-1.096,25.656-1.515l12.828-0.607l12.828-0.493
				c17.104-0.668,34.208-1.097,51.313-1.428c34.208-0.6,68.417-0.918,102.625,0.099l51.313,1.547
				c17.104,0.51,34.208,0.766,51.313,0.795c8.552,0.009,17.104-0.02,25.656-0.089l25.656-0.325l25.656-0.534l25.656-0.646
				c34.208-0.895,68.417-1.529,102.625-1.377c17.104,0.017,34.208,0.244,51.312,0.517l51.313,0.95
				c34.208,0.432,68.417,1.26,102.625-1.212c8.552-0.336,17.104-0.364,25.656-0.127c8.552,0.223,17.104,0.804,25.656,1.409
				c8.552,0.609,17.104,1.165,25.656,1.341c8.552,0.179,17.104,0.08,25.656-0.087c17.104-0.359,34.208-1.425,51.313-2.111
				c17.104-0.728,34.208-0.833,51.313-0.585c17.104,0.221,34.208,0.941,51.313,1.483c17.104,0.532,34.208,0.794,51.313,0.545
				c17.104-0.191,34.208-0.627,51.313-1.289l51.313-2.17c34.208-1.509,68.417-2.087,102.625-1.415
				c17.104,0.332,34.208,1.028,51.313,1.945l51.313,2.88c17.104,0.875,34.208,1.499,51.313,1.751
				c17.104,0.238,34.208,0.171,51.313,0.24c68.417,0.127,136.833-0.038,205.25-0.992v3c-68.417-0.953-136.833-1.119-205.25-0.992
				c-17.104,0.07-34.208,0.003-51.313,0.24c-17.104,0.252-34.208,0.875-51.313,1.751l-51.313,2.88
				c-17.104,0.917-34.208,1.613-51.313,1.945c-34.208,0.671-68.417,0.094-102.625-1.415l-51.313-2.17
				c-17.104-0.662-34.208-1.098-51.313-1.289c-17.104-0.249-34.208,0.013-51.313,0.545c-17.104,0.542-34.208,1.262-51.313,1.483
				c-17.104,0.248-34.208,0.143-51.313-0.585c-17.104-0.686-34.208-1.752-51.313-2.111c-8.552-0.167-17.104-0.266-25.656-0.087
				c-8.552,0.177-17.104,0.732-25.656,1.341c-8.552,0.606-17.104,1.187-25.656,1.409c-8.552,0.237-17.104,0.209-25.656-0.127
				c-34.208-2.473-68.417-1.645-102.625-1.212l-51.313,0.95c-17.104,0.273-34.208,0.5-51.312,0.517
				c-34.208,0.152-68.417-0.482-102.625-1.377l-25.656-0.646l-25.656-0.534l-25.656-0.325c-8.552-0.07-17.104-0.098-25.656-0.089
				c-17.104,0.029-34.208,0.285-51.313,0.795l-51.313,1.547c-34.208,1.017-68.417,0.699-102.625,0.099
				c-17.104-0.331-34.208-0.759-51.313-1.428l-12.828-0.493l-12.828-0.607C-28.676,361.179-37.228,360.692-45.78,360.082z"/>
			<path style="fill:#0B1B3D;" d="M-45.78,314.082c8.552-0.609,17.104-1.096,25.656-1.515l12.828-0.607l12.828-0.493
				c17.104-0.669,34.208-1.097,51.313-1.428c34.208-0.6,68.417-0.918,102.625,0.099l51.313,1.547
				c17.104,0.51,34.208,0.766,51.313,0.795c8.552,0.008,17.104-0.02,25.656-0.089l25.656-0.325l25.656-0.534l25.656-0.646
				c34.208-0.895,68.417-1.529,102.625-1.377c17.104,0.017,34.208,0.244,51.312,0.517l51.313,0.95
				c34.208,0.432,68.417,1.26,102.625-1.212c8.552-0.336,17.104-0.364,25.656-0.127c8.552,0.223,17.104,0.804,25.656,1.409
				c8.552,0.609,17.104,1.165,25.656,1.341c8.552,0.179,17.104,0.079,25.656-0.087c17.104-0.359,34.208-1.425,51.313-2.111
				c17.104-0.728,34.208-0.833,51.313-0.585c17.104,0.221,34.208,0.941,51.313,1.483c17.104,0.532,34.208,0.794,51.313,0.545
				c17.104-0.191,34.208-0.627,51.313-1.289l51.313-2.17c34.208-1.509,68.417-2.087,102.625-1.415
				c17.104,0.332,34.208,1.028,51.313,1.945l51.313,2.88c17.104,0.875,34.208,1.499,51.313,1.751
				c17.104,0.237,34.208,0.171,51.313,0.24c68.417,0.127,136.833-0.038,205.25-0.992v3c-68.417-0.953-136.833-1.119-205.25-0.992
				c-17.104,0.069-34.208,0.003-51.313,0.24c-17.104,0.252-34.208,0.875-51.313,1.751l-51.313,2.88
				c-17.104,0.917-34.208,1.613-51.313,1.945c-34.208,0.671-68.417,0.094-102.625-1.415l-51.313-2.17
				c-17.104-0.662-34.208-1.098-51.313-1.289c-17.104-0.249-34.208,0.013-51.313,0.545c-17.104,0.542-34.208,1.262-51.313,1.483
				c-17.104,0.248-34.208,0.143-51.313-0.585c-17.104-0.686-34.208-1.752-51.313-2.111c-8.552-0.167-17.104-0.266-25.656-0.087
				c-8.552,0.177-17.104,0.732-25.656,1.341c-8.552,0.606-17.104,1.187-25.656,1.409c-8.552,0.237-17.104,0.209-25.656-0.127
				c-34.208-2.473-68.417-1.645-102.625-1.212l-51.313,0.95c-17.104,0.273-34.208,0.5-51.312,0.517
				c-34.208,0.151-68.417-0.482-102.625-1.377l-25.656-0.646l-25.656-0.534l-25.656-0.325c-8.552-0.07-17.104-0.098-25.656-0.09
				c-17.104,0.029-34.208,0.285-51.313,0.795l-51.313,1.547c-34.208,1.017-68.417,0.699-102.625,0.099
				c-17.104-0.331-34.208-0.759-51.313-1.428l-12.828-0.493l-12.828-0.607C-28.676,315.179-37.228,314.692-45.78,314.082z"/>
			<path style="fill:#0B1B3D;" d="M-45.78,268.082c8.552-0.609,17.104-1.096,25.656-1.515l12.828-0.607l12.828-0.493
				c17.104-0.669,34.208-1.097,51.313-1.428c34.208-0.6,68.417-0.918,102.625,0.099l51.313,1.548
				c17.104,0.51,34.208,0.766,51.313,0.795c8.552,0.008,17.104-0.02,25.656-0.09l25.656-0.325l25.656-0.534l25.656-0.646
				c34.208-0.895,68.417-1.529,102.625-1.377c17.104,0.017,34.208,0.244,51.312,0.517l51.313,0.95
				c34.208,0.432,68.417,1.26,102.625-1.212c8.552-0.336,17.104-0.364,25.656-0.127c8.552,0.223,17.104,0.804,25.656,1.409
				c8.552,0.609,17.104,1.165,25.656,1.341c8.552,0.179,17.104,0.079,25.656-0.087c17.104-0.359,34.208-1.425,51.313-2.111
				c17.104-0.728,34.208-0.833,51.313-0.585c17.104,0.221,34.208,0.941,51.313,1.483c17.104,0.532,34.208,0.794,51.313,0.545
				c17.104-0.191,34.208-0.627,51.313-1.289l51.313-2.17c34.208-1.509,68.417-2.087,102.625-1.415
				c17.104,0.332,34.208,1.029,51.313,1.945l51.313,2.88c17.104,0.875,34.208,1.499,51.313,1.751
				c17.104,0.238,34.208,0.171,51.313,0.24c68.417,0.127,136.833-0.038,205.25-0.992v3c-68.417-0.953-136.833-1.119-205.25-0.992
				c-17.104,0.069-34.208,0.003-51.313,0.24c-17.104,0.252-34.208,0.875-51.313,1.751l-51.313,2.88
				c-17.104,0.917-34.208,1.613-51.313,1.945c-34.208,0.671-68.417,0.093-102.625-1.415l-51.313-2.17
				c-17.104-0.662-34.208-1.098-51.313-1.289c-17.104-0.249-34.208,0.013-51.313,0.545c-17.104,0.542-34.208,1.262-51.313,1.483
				c-17.104,0.248-34.208,0.143-51.313-0.585c-17.104-0.686-34.208-1.752-51.313-2.111c-8.552-0.167-17.104-0.266-25.656-0.087
				c-8.552,0.177-17.104,0.732-25.656,1.341c-8.552,0.606-17.104,1.187-25.656,1.409c-8.552,0.237-17.104,0.209-25.656-0.127
				c-34.208-2.473-68.417-1.645-102.625-1.212l-51.313,0.95c-17.104,0.273-34.208,0.5-51.312,0.517
				c-34.208,0.151-68.417-0.482-102.625-1.377l-25.656-0.646l-25.656-0.534l-25.656-0.325c-8.552-0.07-17.104-0.098-25.656-0.09
				c-17.104,0.029-34.208,0.285-51.313,0.795l-51.313,1.547c-34.208,1.017-68.417,0.699-102.625,0.099
				c-17.104-0.331-34.208-0.759-51.313-1.428l-12.828-0.493l-12.828-0.607C-28.676,269.179-37.228,268.691-45.78,268.082z"/>
			<path style="fill:#0B1B3D;" d="M-45.78,222.083c8.552-0.609,17.104-1.096,25.656-1.515l12.828-0.607l12.828-0.493
				c17.104-0.669,34.208-1.097,51.313-1.428c34.208-0.6,68.417-0.918,102.625,0.099l51.313,1.548
				c17.104,0.51,34.208,0.766,51.313,0.795c8.552,0.008,17.104-0.02,25.656-0.089l25.656-0.325l25.656-0.534l25.656-0.646
				c34.208-0.895,68.417-1.529,102.625-1.377c17.104,0.017,34.208,0.244,51.312,0.517l51.313,0.95
				c34.208,0.432,68.417,1.26,102.625-1.212c8.552-0.336,17.104-0.364,25.656-0.127c8.552,0.223,17.104,0.804,25.656,1.409
				c8.552,0.609,17.104,1.165,25.656,1.341c8.552,0.179,17.104,0.08,25.656-0.087c17.104-0.359,34.208-1.425,51.313-2.111
				c17.104-0.728,34.208-0.833,51.313-0.585c17.104,0.221,34.208,0.941,51.313,1.483c17.104,0.532,34.208,0.794,51.313,0.545
				c17.104-0.191,34.208-0.627,51.313-1.289l51.313-2.17c34.208-1.509,68.417-2.087,102.625-1.415
				c17.104,0.332,34.208,1.028,51.313,1.945l51.313,2.88c17.104,0.875,34.208,1.499,51.313,1.751
				c17.104,0.238,34.208,0.171,51.313,0.24c68.417,0.127,136.833-0.038,205.25-0.992v3c-68.417-0.953-136.833-1.119-205.25-0.992
				c-17.104,0.07-34.208,0.003-51.313,0.24c-17.104,0.252-34.208,0.875-51.313,1.751l-51.313,2.88
				c-17.104,0.917-34.208,1.613-51.313,1.945c-34.208,0.671-68.417,0.094-102.625-1.415l-51.313-2.17
				c-17.104-0.662-34.208-1.098-51.313-1.289c-17.104-0.249-34.208,0.013-51.313,0.545c-17.104,0.542-34.208,1.262-51.313,1.483
				c-17.104,0.248-34.208,0.143-51.313-0.585c-17.104-0.686-34.208-1.752-51.313-2.111c-8.552-0.167-17.104-0.266-25.656-0.087
				c-8.552,0.177-17.104,0.732-25.656,1.341c-8.552,0.606-17.104,1.187-25.656,1.409c-8.552,0.237-17.104,0.209-25.656-0.126
				c-34.208-2.473-68.417-1.645-102.625-1.212l-51.313,0.95c-17.104,0.273-34.208,0.5-51.312,0.517
				c-34.208,0.152-68.417-0.482-102.625-1.377l-25.656-0.646l-25.656-0.534l-25.656-0.325c-8.552-0.07-17.104-0.098-25.656-0.089
				c-17.104,0.029-34.208,0.285-51.313,0.795l-51.313,1.547c-34.208,1.017-68.417,0.699-102.625,0.099
				c-17.104-0.331-34.208-0.759-51.313-1.428l-12.828-0.493l-12.828-0.607C-28.676,223.179-37.228,222.691-45.78,222.083z"/>
			<path style="fill:#0B1B3D;" d="M1596.22,383.083c-8.552,0.609-17.104,1.096-25.656,1.515l-12.828,0.607l-12.828,0.493
				c-17.104,0.668-34.208,1.097-51.313,1.428c-34.208,0.6-68.417,0.918-102.625-0.099l-51.313-1.547
				c-17.104-0.51-34.208-0.766-51.313-0.795c-8.552-0.009-17.104,0.02-25.656,0.089l-25.656,0.325l-25.656,0.534l-25.656,0.646
				c-34.208,0.895-68.417,1.529-102.625,1.377c-17.104-0.017-34.208-0.244-51.313-0.517l-51.313-0.95
				c-34.208-0.432-68.417-1.26-102.625,1.212c-8.552,0.336-17.104,0.364-25.656,0.127c-8.552-0.223-17.104-0.804-25.656-1.409
				c-8.552-0.609-17.104-1.165-25.656-1.341c-8.552-0.179-17.104-0.08-25.656,0.087c-17.104,0.359-34.208,1.425-51.313,2.111
				c-17.104,0.728-34.208,0.833-51.313,0.585c-17.104-0.221-34.208-0.941-51.313-1.483c-17.104-0.532-34.208-0.794-51.313-0.545
				c-17.104,0.191-34.208,0.627-51.313,1.289l-51.312,2.17c-34.208,1.509-68.417,2.087-102.625,1.415
				c-17.104-0.332-34.208-1.028-51.313-1.945l-51.313-2.88c-17.104-0.875-34.208-1.499-51.313-1.751
				c-17.104-0.238-34.208-0.171-51.313-0.24c-68.417-0.127-136.833,0.038-205.25,0.992v-3c68.417,0.953,136.833,1.119,205.25,0.991
				c17.104-0.069,34.208-0.003,51.313-0.24c17.104-0.252,34.208-0.875,51.313-1.751l51.313-2.88
				c17.104-0.917,34.208-1.613,51.313-1.945c34.208-0.671,68.417-0.094,102.625,1.415l51.312,2.17
				c17.104,0.662,34.208,1.098,51.313,1.289c17.104,0.249,34.208-0.013,51.313-0.545c17.104-0.542,34.208-1.262,51.313-1.483
				c17.104-0.248,34.208-0.143,51.313,0.585c17.104,0.686,34.208,1.752,51.313,2.111c8.552,0.167,17.104,0.266,25.656,0.087
				c8.552-0.177,17.104-0.732,25.656-1.341c8.552-0.606,17.104-1.187,25.656-1.409c8.552-0.237,17.104-0.209,25.656,0.127
				c34.208,2.473,68.417,1.645,102.625,1.212l51.313-0.95c17.104-0.273,34.208-0.5,51.313-0.517
				c34.208-0.152,68.417,0.482,102.625,1.377l25.656,0.646l25.656,0.534l25.656,0.325c8.552,0.07,17.104,0.098,25.656,0.089
				c17.104-0.029,34.208-0.285,51.313-0.795l51.313-1.547c34.208-1.017,68.417-0.699,102.625-0.099
				c17.104,0.331,34.208,0.759,51.313,1.428l12.828,0.493l12.828,0.607C1579.116,381.986,1587.668,382.474,1596.22,383.083z"/>
			<path style="fill:#0B1B3D;" d="M1596.22,337.082c-8.552,0.609-17.104,1.096-25.656,1.515l-12.828,0.607l-12.828,0.493
				c-17.104,0.668-34.208,1.097-51.313,1.428c-34.208,0.6-68.417,0.918-102.625-0.099l-51.313-1.547
				c-17.104-0.51-34.208-0.766-51.313-0.795c-8.552-0.009-17.104,0.02-25.656,0.089l-25.656,0.325l-25.656,0.534l-25.656,0.646
				c-34.208,0.895-68.417,1.529-102.625,1.377c-17.104-0.017-34.208-0.244-51.313-0.517l-51.313-0.95
				c-34.208-0.432-68.417-1.26-102.625,1.212c-8.552,0.336-17.104,0.364-25.656,0.127c-8.552-0.223-17.104-0.804-25.656-1.409
				c-8.552-0.609-17.104-1.165-25.656-1.341c-8.552-0.179-17.104-0.08-25.656,0.087c-17.104,0.359-34.208,1.425-51.313,2.111
				c-17.104,0.728-34.208,0.833-51.313,0.585c-17.104-0.221-34.208-0.941-51.313-1.483c-17.104-0.532-34.208-0.794-51.313-0.545
				c-17.104,0.191-34.208,0.627-51.313,1.289l-51.312,2.17c-34.208,1.509-68.417,2.087-102.625,1.415
				c-17.104-0.332-34.208-1.028-51.313-1.945l-51.313-2.88c-17.104-0.875-34.208-1.499-51.313-1.751
				c-17.104-0.238-34.208-0.171-51.313-0.24c-68.417-0.127-136.833,0.038-205.25,0.992v-3c68.417,0.953,136.833,1.119,205.25,0.992
				c17.104-0.069,34.208-0.003,51.313-0.24c17.104-0.252,34.208-0.875,51.313-1.751l51.313-2.88
				c17.104-0.917,34.208-1.613,51.313-1.945c34.208-0.671,68.417-0.094,102.625,1.415l51.312,2.17
				c17.104,0.662,34.208,1.098,51.313,1.289c17.104,0.249,34.208-0.013,51.313-0.545c17.104-0.542,34.208-1.262,51.313-1.483
				c17.104-0.248,34.208-0.143,51.313,0.585c17.104,0.686,34.208,1.752,51.313,2.111c8.552,0.167,17.104,0.266,25.656,0.087
				c8.552-0.177,17.104-0.732,25.656-1.341c8.552-0.606,17.104-1.187,25.656-1.409c8.552-0.237,17.104-0.209,25.656,0.127
				c34.208,2.473,68.417,1.645,102.625,1.212l51.313-0.95c17.104-0.273,34.208-0.5,51.313-0.517
				c34.208-0.151,68.417,0.482,102.625,1.377l25.656,0.646l25.656,0.534l25.656,0.325c8.552,0.07,17.104,0.098,25.656,0.089
				c17.104-0.029,34.208-0.285,51.313-0.795l51.313-1.547c34.208-1.017,68.417-0.699,102.625-0.099
				c17.104,0.331,34.208,0.759,51.313,1.428l12.828,0.493l12.828,0.607C1579.116,335.986,1587.668,336.474,1596.22,337.082z"/>
			<path style="fill:#0B1B3D;" d="M1596.22,291.082c-8.552,0.609-17.104,1.096-25.656,1.515l-12.828,0.607l-12.828,0.493
				c-17.104,0.669-34.208,1.097-51.313,1.428c-34.208,0.6-68.417,0.918-102.625-0.099l-51.313-1.547
				c-17.104-0.51-34.208-0.766-51.313-0.795c-8.552-0.008-17.104,0.02-25.656,0.09l-25.656,0.325l-25.656,0.534l-25.656,0.646
				c-34.208,0.895-68.417,1.529-102.625,1.377c-17.104-0.017-34.208-0.244-51.313-0.517l-51.313-0.95
				c-34.208-0.432-68.417-1.26-102.625,1.212c-8.552,0.336-17.104,0.364-25.656,0.127c-8.552-0.223-17.104-0.804-25.656-1.409
				c-8.552-0.609-17.104-1.165-25.656-1.341c-8.552-0.179-17.104-0.079-25.656,0.087c-17.104,0.359-34.208,1.425-51.313,2.111
				c-17.104,0.728-34.208,0.833-51.313,0.585c-17.104-0.221-34.208-0.941-51.313-1.483c-17.104-0.532-34.208-0.794-51.313-0.545
				c-17.104,0.191-34.208,0.627-51.313,1.289l-51.312,2.17c-34.208,1.509-68.417,2.087-102.625,1.415
				c-17.104-0.332-34.208-1.029-51.313-1.945l-51.313-2.88c-17.104-0.875-34.208-1.499-51.313-1.751
				c-17.104-0.237-34.208-0.171-51.313-0.24c-68.417-0.127-136.833,0.038-205.25,0.992v-3c68.417,0.953,136.833,1.119,205.25,0.992
				c17.104-0.069,34.208-0.003,51.313-0.24c17.104-0.252,34.208-0.875,51.313-1.751l51.313-2.88
				c17.104-0.917,34.208-1.613,51.313-1.945c34.208-0.671,68.417-0.093,102.625,1.415l51.312,2.17
				c17.104,0.662,34.208,1.098,51.313,1.289c17.104,0.249,34.208-0.013,51.313-0.545c17.104-0.542,34.208-1.262,51.313-1.483
				c17.104-0.248,34.208-0.143,51.313,0.585c17.104,0.686,34.208,1.752,51.313,2.111c8.552,0.167,17.104,0.266,25.656,0.087
				c8.552-0.177,17.104-0.732,25.656-1.341c8.552-0.606,17.104-1.187,25.656-1.409c8.552-0.237,17.104-0.209,25.656,0.127
				c34.208,2.473,68.417,1.645,102.625,1.212l51.313-0.95c17.104-0.273,34.208-0.5,51.313-0.517
				c34.208-0.151,68.417,0.482,102.625,1.377l25.656,0.646l25.656,0.534l25.656,0.325c8.552,0.07,17.104,0.098,25.656,0.089
				c17.104-0.029,34.208-0.285,51.313-0.795l51.313-1.547c34.208-1.017,68.417-0.699,102.625-0.099
				c17.104,0.331,34.208,0.759,51.313,1.428l12.828,0.493l12.828,0.607C1579.116,289.986,1587.668,290.474,1596.22,291.082z"/>
			<path style="fill:#0B1B3D;" d="M1596.22,245.083c-8.552,0.609-17.104,1.096-25.656,1.515l-12.828,0.607l-12.828,0.493
				c-17.104,0.669-34.208,1.097-51.313,1.428c-34.208,0.6-68.417,0.918-102.625-0.099l-51.313-1.547
				c-17.104-0.51-34.208-0.766-51.313-0.795c-8.552-0.008-17.104,0.02-25.656,0.089l-25.656,0.325l-25.656,0.534l-25.656,0.646
				c-34.208,0.895-68.417,1.529-102.625,1.377c-17.104-0.017-34.208-0.244-51.313-0.517l-51.313-0.95
				c-34.208-0.432-68.417-1.26-102.625,1.212c-8.552,0.336-17.104,0.364-25.656,0.126c-8.552-0.222-17.104-0.803-25.656-1.409
				c-8.552-0.609-17.104-1.165-25.656-1.341c-8.552-0.179-17.104-0.079-25.656,0.087c-17.104,0.359-34.208,1.425-51.313,2.111
				c-17.104,0.728-34.208,0.833-51.313,0.585c-17.104-0.221-34.208-0.941-51.313-1.483c-17.104-0.532-34.208-0.794-51.313-0.545
				c-17.104,0.191-34.208,0.627-51.313,1.289l-51.312,2.17c-34.208,1.509-68.417,2.087-102.625,1.415
				c-17.104-0.332-34.208-1.028-51.313-1.945l-51.313-2.88c-17.104-0.875-34.208-1.499-51.313-1.751
				c-17.104-0.238-34.208-0.171-51.313-0.24c-68.417-0.127-136.833,0.038-205.25,0.992v-3c68.417,0.953,136.833,1.119,205.25,0.992
				c17.104-0.07,34.208-0.003,51.313-0.24c17.104-0.252,34.208-0.875,51.313-1.751l51.313-2.88
				c17.104-0.917,34.208-1.613,51.313-1.945c34.208-0.671,68.417-0.094,102.625,1.415l51.312,2.17
				c17.104,0.662,34.208,1.098,51.313,1.289c17.104,0.249,34.208-0.013,51.313-0.545c17.104-0.542,34.208-1.262,51.313-1.483
				c17.104-0.248,34.208-0.143,51.313,0.585c17.104,0.686,34.208,1.752,51.313,2.111c8.552,0.167,17.104,0.266,25.656,0.087
				c8.552-0.177,17.104-0.732,25.656-1.341c8.552-0.606,17.104-1.187,25.656-1.409c8.552-0.237,17.104-0.209,25.656,0.127
				c34.208,2.473,68.417,1.645,102.625,1.212l51.313-0.95c17.104-0.273,34.208-0.5,51.313-0.517
				c34.208-0.152,68.417,0.482,102.625,1.377l25.656,0.646l25.656,0.534l25.656,0.325c8.552,0.07,17.104,0.098,25.656,0.089
				c17.104-0.029,34.208-0.285,51.313-0.795l51.313-1.548c34.208-1.017,68.417-0.699,102.625-0.099
				c17.104,0.331,34.208,0.759,51.313,1.428l12.828,0.493l12.828,0.607C1579.116,243.986,1587.668,244.473,1596.22,245.083z"/>
		</g>
		<g style="clip-path:url(#SVGID_00000093874472036252662910000002522132677653415850_);">
			<path style="fill:#0B1B3D;" d="M-45.78,614.572c8.552-0.609,17.104-1.096,25.656-1.515l12.828-0.607l12.828-0.493
				c17.104-0.669,34.208-1.097,51.313-1.428c34.208-0.6,68.417-0.918,102.625,0.099l51.313,1.547
				c17.104,0.51,34.208,0.766,51.313,0.795c8.552,0.008,17.104-0.02,25.656-0.089l25.656-0.325l25.656-0.534l25.656-0.646
				c34.208-0.895,68.417-1.529,102.625-1.377c17.104,0.017,34.208,0.244,51.312,0.517l51.313,0.95
				c34.208,0.432,68.417,1.26,102.625-1.213c8.552-0.336,17.104-0.364,25.656-0.127c8.552,0.223,17.104,0.804,25.656,1.409
				c8.552,0.609,17.104,1.165,25.656,1.341c8.552,0.179,17.104,0.079,25.656-0.087c17.104-0.359,34.208-1.425,51.313-2.111
				c17.104-0.728,34.208-0.833,51.313-0.585c17.104,0.221,34.208,0.941,51.313,1.483c17.104,0.532,34.208,0.794,51.313,0.545
				c17.104-0.191,34.208-0.627,51.313-1.289l51.313-2.17c34.208-1.509,68.417-2.087,102.625-1.415
				c17.104,0.332,34.208,1.028,51.313,1.945l51.313,2.88c17.104,0.875,34.208,1.499,51.313,1.751
				c17.104,0.237,34.208,0.171,51.313,0.24c68.417,0.127,136.833-0.038,205.25-0.992v3c-68.417-0.953-136.833-1.119-205.25-0.992
				c-17.104,0.069-34.208,0.003-51.313,0.24c-17.104,0.252-34.208,0.875-51.313,1.751l-51.313,2.88
				c-17.104,0.917-34.208,1.613-51.313,1.945c-34.208,0.671-68.417,0.094-102.625-1.416l-51.313-2.17
				c-17.104-0.662-34.208-1.098-51.313-1.289c-17.104-0.249-34.208,0.013-51.313,0.545c-17.104,0.542-34.208,1.262-51.313,1.483
				c-17.104,0.248-34.208,0.143-51.313-0.585c-17.104-0.686-34.208-1.752-51.313-2.111c-8.552-0.167-17.104-0.266-25.656-0.087
				c-8.552,0.177-17.104,0.732-25.656,1.341c-8.552,0.606-17.104,1.187-25.656,1.409c-8.552,0.237-17.104,0.209-25.656-0.127
				c-34.208-2.473-68.417-1.645-102.625-1.212l-51.313,0.95c-17.104,0.273-34.208,0.5-51.312,0.517
				c-34.208,0.151-68.417-0.482-102.625-1.377l-25.656-0.646l-25.656-0.534l-25.656-0.325c-8.552-0.07-17.104-0.098-25.656-0.089
				c-17.104,0.029-34.208,0.285-51.313,0.795l-51.313,1.548c-34.208,1.017-68.417,0.698-102.625,0.099
				c-17.104-0.331-34.208-0.759-51.313-1.428l-12.828-0.493l-12.828-0.607C-28.676,615.668-37.228,615.181-45.78,614.572z"/>
			<path style="fill:#0B1B3D;" d="M-45.78,568.572c8.552-0.609,17.104-1.096,25.656-1.515l12.828-0.607l12.828-0.493
				c17.104-0.669,34.208-1.097,51.313-1.428c34.208-0.6,68.417-0.918,102.625,0.099l51.313,1.547
				c17.104,0.51,34.208,0.766,51.313,0.795c8.552,0.008,17.104-0.02,25.656-0.09l25.656-0.325l25.656-0.534l25.656-0.646
				c34.208-0.895,68.417-1.529,102.625-1.377c17.104,0.017,34.208,0.244,51.312,0.517l51.313,0.95
				c34.208,0.432,68.417,1.26,102.625-1.212c8.552-0.336,17.104-0.364,25.656-0.127c8.552,0.223,17.104,0.804,25.656,1.409
				c8.552,0.609,17.104,1.165,25.656,1.341c8.552,0.179,17.104,0.079,25.656-0.087c17.104-0.359,34.208-1.425,51.313-2.111
				c17.104-0.728,34.208-0.833,51.313-0.585c17.104,0.221,34.208,0.941,51.313,1.483c17.104,0.532,34.208,0.794,51.313,0.545
				c17.104-0.191,34.208-0.627,51.313-1.289l51.313-2.17c34.208-1.509,68.417-2.087,102.625-1.416
				c17.104,0.332,34.208,1.029,51.313,1.945l51.313,2.88c17.104,0.875,34.208,1.499,51.313,1.751
				c17.104,0.237,34.208,0.171,51.313,0.24c68.417,0.127,136.833-0.038,205.25-0.992v3c-68.417-0.953-136.833-1.119-205.25-0.992
				c-17.104,0.069-34.208,0.003-51.313,0.24c-17.104,0.252-34.208,0.875-51.313,1.751l-51.313,2.88
				c-17.104,0.917-34.208,1.613-51.313,1.945c-34.208,0.671-68.417,0.094-102.625-1.415l-51.313-2.17
				c-17.104-0.662-34.208-1.098-51.313-1.289c-17.104-0.249-34.208,0.013-51.313,0.545c-17.104,0.542-34.208,1.262-51.313,1.483
				c-17.104,0.248-34.208,0.143-51.313-0.585c-17.104-0.686-34.208-1.752-51.313-2.111c-8.552-0.167-17.104-0.266-25.656-0.087
				c-8.552,0.177-17.104,0.732-25.656,1.341c-8.552,0.606-17.104,1.187-25.656,1.409c-8.552,0.237-17.104,0.209-25.656-0.127
				c-34.208-2.473-68.417-1.645-102.625-1.213l-51.313,0.95c-17.104,0.273-34.208,0.5-51.312,0.517
				c-34.208,0.151-68.417-0.482-102.625-1.377l-25.656-0.646l-25.656-0.534l-25.656-0.325c-8.552-0.07-17.104-0.098-25.656-0.089
				c-17.104,0.029-34.208,0.285-51.313,0.795l-51.313,1.547c-34.208,1.017-68.417,0.699-102.625,0.099
				c-17.104-0.331-34.208-0.759-51.313-1.428l-12.828-0.493l-12.828-0.607C-28.676,569.668-37.228,569.181-45.78,568.572z"/>
			<path style="fill:#0B1B3D;" d="M-45.78,522.572c8.552-0.609,17.104-1.096,25.656-1.515l12.828-0.607l12.828-0.493
				c17.104-0.668,34.208-1.097,51.313-1.428c34.208-0.6,68.417-0.918,102.625,0.099l51.313,1.547
				c17.104,0.51,34.208,0.766,51.313,0.795c8.552,0.009,17.104-0.019,25.656-0.089l25.656-0.325l25.656-0.534l25.656-0.646
				c34.208-0.895,68.417-1.529,102.625-1.377c17.104,0.017,34.208,0.244,51.312,0.517l51.313,0.95
				c34.208,0.432,68.417,1.26,102.625-1.212c8.552-0.336,17.104-0.364,25.656-0.127c8.552,0.222,17.104,0.804,25.656,1.409
				c8.552,0.609,17.104,1.165,25.656,1.341c8.552,0.179,17.104,0.08,25.656-0.087c17.104-0.359,34.208-1.425,51.313-2.111
				c17.104-0.728,34.208-0.833,51.313-0.585c17.104,0.221,34.208,0.941,51.313,1.483c17.104,0.532,34.208,0.794,51.313,0.545
				c17.104-0.191,34.208-0.627,51.313-1.289l51.313-2.17c34.208-1.509,68.417-2.087,102.625-1.415
				c17.104,0.332,34.208,1.028,51.313,1.945l51.313,2.88c17.104,0.875,34.208,1.499,51.313,1.751
				c17.104,0.238,34.208,0.171,51.313,0.24c68.417,0.127,136.833-0.038,205.25-0.992v3c-68.417-0.953-136.833-1.119-205.25-0.992
				c-17.104,0.069-34.208,0.003-51.313,0.24c-17.104,0.252-34.208,0.875-51.313,1.751l-51.313,2.88
				c-17.104,0.917-34.208,1.613-51.313,1.945c-34.208,0.671-68.417,0.094-102.625-1.415l-51.313-2.17
				c-17.104-0.662-34.208-1.098-51.313-1.289c-17.104-0.249-34.208,0.013-51.313,0.545c-17.104,0.542-34.208,1.262-51.313,1.483
				c-17.104,0.248-34.208,0.143-51.313-0.585c-17.104-0.686-34.208-1.752-51.313-2.111c-8.552-0.167-17.104-0.266-25.656-0.087
				c-8.552,0.177-17.104,0.732-25.656,1.341c-8.552,0.606-17.104,1.187-25.656,1.409c-8.552,0.237-17.104,0.209-25.656-0.126
				c-34.208-2.473-68.417-1.645-102.625-1.213l-51.313,0.95c-17.104,0.273-34.208,0.5-51.312,0.517
				c-34.208,0.152-68.417-0.482-102.625-1.377l-25.656-0.646l-25.656-0.534l-25.656-0.325c-8.552-0.07-17.104-0.098-25.656-0.089
				c-17.104,0.029-34.208,0.285-51.313,0.795l-51.313,1.547c-34.208,1.017-68.417,0.699-102.625,0.099
				c-17.104-0.331-34.208-0.759-51.313-1.428l-12.828-0.493l-12.828-0.607C-28.676,523.668-37.228,523.181-45.78,522.572z"/>
			<path style="fill:#0B1B3D;" d="M-45.78,476.572c8.552-0.609,17.104-1.096,25.656-1.515l12.828-0.607l12.828-0.493
				c17.104-0.669,34.208-1.097,51.313-1.428c34.208-0.6,68.417-0.918,102.625,0.099l51.313,1.547
				c17.104,0.51,34.208,0.766,51.313,0.795c8.552,0.008,17.104-0.02,25.656-0.09l25.656-0.325l25.656-0.534l25.656-0.646
				c34.208-0.895,68.417-1.529,102.625-1.377c17.104,0.017,34.208,0.244,51.312,0.517l51.313,0.95
				c34.208,0.432,68.417,1.26,102.625-1.212c8.552-0.336,17.104-0.364,25.656-0.126c8.552,0.223,17.104,0.803,25.656,1.409
				c8.552,0.609,17.104,1.165,25.656,1.341c8.552,0.179,17.104,0.079,25.656-0.087c17.104-0.359,34.208-1.425,51.313-2.111
				c17.104-0.728,34.208-0.833,51.313-0.585c17.104,0.221,34.208,0.941,51.313,1.483c17.104,0.532,34.208,0.794,51.313,0.545
				c17.104-0.191,34.208-0.627,51.313-1.289l51.313-2.17c34.208-1.509,68.417-2.087,102.625-1.415
				c17.104,0.332,34.208,1.028,51.313,1.945l51.313,2.88c17.104,0.875,34.208,1.499,51.313,1.751
				c17.104,0.238,34.208,0.171,51.313,0.24c68.417,0.127,136.833-0.038,205.25-0.992v3c-68.417-0.953-136.833-1.119-205.25-0.992
				c-17.104,0.069-34.208,0.003-51.313,0.24c-17.104,0.252-34.208,0.875-51.313,1.751l-51.313,2.88
				c-17.104,0.917-34.208,1.613-51.313,1.945c-34.208,0.671-68.417,0.094-102.625-1.415l-51.313-2.17
				c-17.104-0.662-34.208-1.098-51.313-1.289c-17.104-0.249-34.208,0.013-51.313,0.545c-17.104,0.542-34.208,1.262-51.313,1.483
				c-17.104,0.248-34.208,0.143-51.313-0.585c-17.104-0.686-34.208-1.752-51.313-2.111c-8.552-0.167-17.104-0.266-25.656-0.087
				c-8.552,0.177-17.104,0.732-25.656,1.341c-8.552,0.606-17.104,1.187-25.656,1.409c-8.552,0.237-17.104,0.209-25.656-0.127
				c-34.208-2.473-68.417-1.645-102.625-1.212l-51.313,0.95c-17.104,0.273-34.208,0.5-51.312,0.517
				c-34.208,0.152-68.417-0.482-102.625-1.377l-25.656-0.646l-25.656-0.534l-25.656-0.325c-8.552-0.07-17.104-0.098-25.656-0.09
				c-17.104,0.029-34.208,0.285-51.313,0.795l-51.313,1.548c-34.208,1.017-68.417,0.698-102.625,0.099
				c-17.104-0.331-34.208-0.759-51.313-1.428l-12.828-0.493l-12.828-0.607C-28.676,477.668-37.228,477.181-45.78,476.572z"/>
			<path style="fill:#0B1B3D;" d="M-45.78,430.572c8.552-0.609,17.104-1.096,25.656-1.515l12.828-0.607l12.828-0.493
				c17.104-0.669,34.208-1.097,51.313-1.428c34.208-0.6,68.417-0.918,102.625,0.099l51.313,1.547
				c17.104,0.51,34.208,0.766,51.313,0.795c8.552,0.008,17.104-0.02,25.656-0.09l25.656-0.325l25.656-0.534l25.656-0.646
				c34.208-0.895,68.417-1.529,102.625-1.377c17.104,0.017,34.208,0.244,51.312,0.517l51.313,0.95
				c34.208,0.432,68.417,1.26,102.625-1.212c8.552-0.336,17.104-0.364,25.656-0.127c8.552,0.223,17.104,0.804,25.656,1.409
				c8.552,0.609,17.104,1.165,25.656,1.341c8.552,0.179,17.104,0.079,25.656-0.087c17.104-0.359,34.208-1.425,51.313-2.111
				c17.104-0.728,34.208-0.833,51.313-0.585c17.104,0.221,34.208,0.941,51.313,1.483c17.104,0.532,34.208,0.794,51.313,0.545
				c17.104-0.191,34.208-0.627,51.313-1.289l51.313-2.17c34.208-1.509,68.417-2.087,102.625-1.415
				c17.104,0.332,34.208,1.029,51.313,1.945l51.313,2.88c17.104,0.875,34.208,1.499,51.313,1.751
				c17.104,0.237,34.208,0.171,51.313,0.24c68.417,0.127,136.833-0.038,205.25-0.992v3c-68.417-0.953-136.833-1.119-205.25-0.992
				c-17.104,0.069-34.208,0.003-51.313,0.24c-17.104,0.252-34.208,0.875-51.313,1.751l-51.313,2.88
				c-17.104,0.917-34.208,1.613-51.313,1.945c-34.208,0.671-68.417,0.093-102.625-1.415l-51.313-2.17
				c-17.104-0.662-34.208-1.098-51.313-1.289c-17.104-0.249-34.208,0.013-51.313,0.545c-17.104,0.542-34.208,1.262-51.313,1.483
				c-17.104,0.248-34.208,0.143-51.313-0.585c-17.104-0.686-34.208-1.752-51.313-2.111c-8.552-0.167-17.104-0.266-25.656-0.087
				c-8.552,0.177-17.104,0.732-25.656,1.341c-8.552,0.606-17.104,1.187-25.656,1.409c-8.552,0.237-17.104,0.209-25.656-0.127
				c-34.208-2.473-68.417-1.645-102.625-1.212l-51.313,0.95c-17.104,0.273-34.208,0.5-51.312,0.517
				c-34.208,0.151-68.417-0.482-102.625-1.377l-25.656-0.646l-25.656-0.534l-25.656-0.325c-8.552-0.07-17.104-0.098-25.656-0.089
				c-17.104,0.029-34.208,0.285-51.313,0.795l-51.313,1.547c-34.208,1.017-68.417,0.699-102.625,0.099
				c-17.104-0.331-34.208-0.759-51.313-1.428l-12.828-0.493l-12.828-0.607C-28.676,431.668-37.228,431.181-45.78,430.572z"/>
			<path style="fill:#0B1B3D;" d="M1596.22,591.572c-8.552,0.609-17.104,1.096-25.656,1.515l-12.828,0.607l-12.828,0.493
				c-17.104,0.669-34.208,1.097-51.313,1.428c-34.208,0.6-68.417,0.918-102.625-0.099l-51.313-1.547
				c-17.104-0.51-34.208-0.766-51.313-0.795c-8.552-0.008-17.104,0.02-25.656,0.089l-25.656,0.325l-25.656,0.534l-25.656,0.646
				c-34.208,0.895-68.417,1.529-102.625,1.377c-17.104-0.017-34.208-0.244-51.313-0.517l-51.313-0.95
				c-34.208-0.432-68.417-1.26-102.625,1.213c-8.552,0.336-17.104,0.364-25.656,0.127c-8.552-0.223-17.104-0.804-25.656-1.409
				c-8.552-0.609-17.104-1.165-25.656-1.341c-8.552-0.179-17.104-0.079-25.656,0.087c-17.104,0.359-34.208,1.425-51.313,2.111
				c-17.104,0.728-34.208,0.833-51.313,0.585c-17.104-0.221-34.208-0.941-51.313-1.483c-17.104-0.532-34.208-0.794-51.313-0.545
				c-17.104,0.191-34.208,0.627-51.313,1.289l-51.312,2.17c-34.208,1.509-68.417,2.087-102.625,1.416
				c-17.104-0.332-34.208-1.029-51.313-1.945l-51.313-2.88c-17.104-0.875-34.208-1.499-51.313-1.751
				c-17.104-0.237-34.208-0.171-51.313-0.24c-68.417-0.127-136.833,0.038-205.25,0.992v-3c68.417,0.953,136.833,1.119,205.25,0.992
				c17.104-0.069,34.208-0.003,51.313-0.24c17.104-0.252,34.208-0.875,51.313-1.751l51.313-2.88
				c17.104-0.917,34.208-1.613,51.313-1.945c34.208-0.671,68.417-0.094,102.625,1.415l51.312,2.17
				c17.104,0.662,34.208,1.098,51.313,1.289c17.104,0.249,34.208-0.013,51.313-0.545c17.104-0.542,34.208-1.262,51.313-1.483
				c17.104-0.248,34.208-0.143,51.313,0.585c17.104,0.686,34.208,1.752,51.313,2.111c8.552,0.167,17.104,0.266,25.656,0.087
				c8.552-0.177,17.104-0.732,25.656-1.341c8.552-0.606,17.104-1.187,25.656-1.409c8.552-0.237,17.104-0.209,25.656,0.127
				c34.208,2.473,68.417,1.645,102.625,1.213l51.313-0.95c17.104-0.273,34.208-0.5,51.313-0.517
				c34.208-0.151,68.417,0.482,102.625,1.377l25.656,0.646l25.656,0.534l25.656,0.325c8.552,0.07,17.104,0.098,25.656,0.089
				c17.104-0.029,34.208-0.285,51.313-0.795l51.313-1.547c34.208-1.017,68.417-0.699,102.625-0.099
				c17.104,0.331,34.208,0.759,51.313,1.428l12.828,0.493l12.828,0.607C1579.116,590.476,1587.668,590.963,1596.22,591.572z"/>
			<path style="fill:#0B1B3D;" d="M1596.22,545.572c-8.552,0.609-17.104,1.096-25.656,1.515l-12.828,0.607l-12.828,0.493
				c-17.104,0.669-34.208,1.097-51.313,1.428c-34.208,0.6-68.417,0.918-102.625-0.099l-51.313-1.547
				c-17.104-0.51-34.208-0.766-51.313-0.795c-8.552-0.008-17.104,0.02-25.656,0.089l-25.656,0.325l-25.656,0.534l-25.656,0.646
				c-34.208,0.895-68.417,1.529-102.625,1.377c-17.104-0.017-34.208-0.244-51.313-0.517l-51.313-0.95
				c-34.208-0.432-68.417-1.26-102.625,1.213c-8.552,0.336-17.104,0.364-25.656,0.127c-8.552-0.223-17.104-0.804-25.656-1.409
				c-8.552-0.609-17.104-1.165-25.656-1.341c-8.552-0.179-17.104-0.079-25.656,0.087c-17.104,0.359-34.208,1.425-51.313,2.111
				c-17.104,0.728-34.208,0.833-51.313,0.585c-17.104-0.221-34.208-0.941-51.313-1.483c-17.104-0.532-34.208-0.794-51.313-0.545
				c-17.104,0.191-34.208,0.627-51.313,1.289l-51.312,2.17c-34.208,1.509-68.417,2.087-102.625,1.415
				c-17.104-0.332-34.208-1.028-51.313-1.945l-51.313-2.88c-17.104-0.875-34.208-1.499-51.313-1.751
				c-17.104-0.237-34.208-0.171-51.313-0.24c-68.417-0.127-136.833,0.038-205.25,0.992v-3c68.417,0.953,136.833,1.119,205.25,0.992
				c17.104-0.069,34.208-0.003,51.313-0.24c17.104-0.252,34.208-0.875,51.313-1.751l51.313-2.88
				c17.104-0.917,34.208-1.613,51.313-1.945c34.208-0.671,68.417-0.094,102.625,1.416l51.312,2.17
				c17.104,0.662,34.208,1.098,51.313,1.289c17.104,0.249,34.208-0.013,51.313-0.545c17.104-0.542,34.208-1.262,51.313-1.483
				c17.104-0.248,34.208-0.143,51.313,0.585c17.104,0.686,34.208,1.752,51.313,2.111c8.552,0.167,17.104,0.266,25.656,0.087
				c8.552-0.177,17.104-0.732,25.656-1.341c8.552-0.606,17.104-1.187,25.656-1.409c8.552-0.237,17.104-0.209,25.656,0.127
				c34.208,2.473,68.417,1.645,102.625,1.212l51.313-0.95c17.104-0.273,34.208-0.5,51.313-0.517
				c34.208-0.152,68.417,0.482,102.625,1.377l25.656,0.646l25.656,0.534l25.656,0.325c8.552,0.07,17.104,0.098,25.656,0.089
				c17.104-0.029,34.208-0.285,51.313-0.795l51.313-1.547c34.208-1.017,68.417-0.699,102.625-0.099
				c17.104,0.331,34.208,0.759,51.313,1.428l12.828,0.493l12.828,0.607C1579.116,544.476,1587.668,544.963,1596.22,545.572z"/>
			<path style="fill:#0B1B3D;" d="M1596.22,499.572c-8.552,0.609-17.104,1.096-25.656,1.515l-12.828,0.607l-12.828,0.493
				c-17.104,0.669-34.208,1.097-51.313,1.428c-34.208,0.6-68.417,0.918-102.625-0.099l-51.313-1.548
				c-17.104-0.51-34.208-0.766-51.313-0.795c-8.552-0.009-17.104,0.02-25.656,0.09l-25.656,0.325l-25.656,0.534l-25.656,0.646
				c-34.208,0.895-68.417,1.529-102.625,1.377c-17.104-0.017-34.208-0.244-51.313-0.517l-51.313-0.95
				c-34.208-0.432-68.417-1.26-102.625,1.212c-8.552,0.336-17.104,0.364-25.656,0.127c-8.552-0.223-17.104-0.803-25.656-1.409
				c-8.552-0.609-17.104-1.165-25.656-1.341c-8.552-0.179-17.104-0.08-25.656,0.087c-17.104,0.359-34.208,1.425-51.313,2.111
				c-17.104,0.728-34.208,0.833-51.313,0.585c-17.104-0.221-34.208-0.941-51.313-1.483c-17.104-0.532-34.208-0.794-51.313-0.545
				c-17.104,0.191-34.208,0.627-51.313,1.289l-51.312,2.17c-34.208,1.509-68.417,2.087-102.625,1.415
				c-17.104-0.332-34.208-1.028-51.313-1.945l-51.313-2.88c-17.104-0.875-34.208-1.499-51.313-1.751
				c-17.104-0.238-34.208-0.171-51.313-0.24c-68.417-0.127-136.833,0.038-205.25,0.992v-3c68.417,0.953,136.833,1.119,205.25,0.992
				c17.104-0.069,34.208-0.002,51.313-0.24c17.104-0.252,34.208-0.875,51.313-1.751l51.313-2.88
				c17.104-0.917,34.208-1.613,51.313-1.945c34.208-0.671,68.417-0.093,102.625,1.415l51.312,2.17
				c17.104,0.662,34.208,1.098,51.313,1.289c17.104,0.249,34.208-0.013,51.313-0.545c17.104-0.542,34.208-1.262,51.313-1.483
				c17.104-0.248,34.208-0.143,51.313,0.585c17.104,0.686,34.208,1.752,51.313,2.111c8.552,0.167,17.104,0.266,25.656,0.087
				c8.552-0.177,17.104-0.732,25.656-1.341c8.552-0.606,17.104-1.187,25.656-1.409c8.552-0.237,17.104-0.209,25.656,0.126
				c34.208,2.473,68.417,1.645,102.625,1.212l51.313-0.95c17.104-0.273,34.208-0.5,51.313-0.517
				c34.208-0.152,68.417,0.482,102.625,1.377l25.656,0.646l25.656,0.534l25.656,0.325c8.552,0.07,17.104,0.098,25.656,0.09
				c17.104-0.029,34.208-0.285,51.313-0.795l51.313-1.548c34.208-1.017,68.417-0.699,102.625-0.099
				c17.104,0.331,34.208,0.759,51.313,1.428l12.828,0.493l12.828,0.607C1579.116,498.476,1587.668,498.963,1596.22,499.572z"/>
			<path style="fill:#0B1B3D;" d="M1596.22,453.572c-8.552,0.609-17.104,1.096-25.656,1.515l-12.828,0.607l-12.828,0.493
				c-17.104,0.669-34.208,1.097-51.313,1.428c-34.208,0.6-68.417,0.918-102.625-0.099l-51.313-1.548
				c-17.104-0.51-34.208-0.766-51.313-0.795c-8.552-0.008-17.104,0.02-25.656,0.09l-25.656,0.325l-25.656,0.534l-25.656,0.646
				c-34.208,0.895-68.417,1.529-102.625,1.377c-17.104-0.017-34.208-0.244-51.313-0.517l-51.313-0.95
				c-34.208-0.433-68.417-1.26-102.625,1.212c-8.552,0.336-17.104,0.364-25.656,0.127c-8.552-0.223-17.104-0.804-25.656-1.409
				c-8.552-0.609-17.104-1.165-25.656-1.341c-8.552-0.179-17.104-0.08-25.656,0.087c-17.104,0.359-34.208,1.425-51.313,2.111
				c-17.104,0.728-34.208,0.833-51.313,0.585c-17.104-0.221-34.208-0.941-51.313-1.483c-17.104-0.532-34.208-0.794-51.313-0.545
				c-17.104,0.191-34.208,0.627-51.313,1.289l-51.312,2.17c-34.208,1.509-68.417,2.087-102.625,1.415
				c-17.104-0.332-34.208-1.029-51.313-1.945l-51.313-2.88c-17.104-0.875-34.208-1.499-51.313-1.751
				c-17.104-0.238-34.208-0.171-51.313-0.24c-68.417-0.127-136.833,0.038-205.25,0.992v-3c68.417,0.953,136.833,1.119,205.25,0.992
				c17.104-0.069,34.208-0.003,51.313-0.24c17.104-0.252,34.208-0.875,51.313-1.751l51.313-2.88
				c17.104-0.917,34.208-1.613,51.313-1.945c34.208-0.671,68.417-0.093,102.625,1.415l51.312,2.17
				c17.104,0.662,34.208,1.098,51.313,1.289c17.104,0.249,34.208-0.013,51.313-0.545c17.104-0.542,34.208-1.262,51.313-1.483
				c17.104-0.248,34.208-0.143,51.313,0.585c17.104,0.686,34.208,1.752,51.313,2.111c8.552,0.167,17.104,0.266,25.656,0.087
				c8.552-0.177,17.104-0.732,25.656-1.341c8.552-0.606,17.104-1.187,25.656-1.409c8.552-0.237,17.104-0.209,25.656,0.127
				c34.208,2.473,68.417,1.645,102.625,1.212l51.313-0.95c17.104-0.273,34.208-0.5,51.313-0.517
				c34.208-0.152,68.417,0.482,102.625,1.377l25.656,0.646l25.656,0.534l25.656,0.325c8.552,0.07,17.104,0.098,25.656,0.09
				c17.104-0.029,34.208-0.285,51.313-0.795l51.313-1.547c34.208-1.017,68.417-0.699,102.625-0.099
				c17.104,0.331,34.208,0.759,51.313,1.428l12.828,0.493l12.828,0.607C1579.116,452.476,1587.668,452.963,1596.22,453.572z"/>
		</g>
		<g style="clip-path:url(#SVGID_00000093874472036252662910000002522132677653415850_);">
			<g>
				<path style="fill:#395799;" d="M-57.625,187.593c8.552-0.609,17.104-1.096,25.656-1.515l12.828-0.607l12.828-0.493
					c17.104-0.669,34.208-1.097,51.313-1.428c34.208-0.6,68.417-0.918,102.625,0.099l51.313,1.547
					c17.104,0.51,34.208,0.766,51.313,0.795c8.552,0.008,17.104-0.02,25.656-0.089l25.656-0.325l25.656-0.534l25.656-0.646
					c34.208-0.895,68.417-1.529,102.625-1.377c17.104,0.017,34.208,0.244,51.313,0.517l51.313,0.95
					c34.208,0.432,68.417,1.26,102.625-1.212c8.552-0.336,17.104-0.364,25.656-0.127c8.552,0.223,17.104,0.804,25.656,1.409
					c8.552,0.609,17.104,1.165,25.656,1.341c8.552,0.179,17.104,0.079,25.656-0.087c17.104-0.359,34.208-1.425,51.313-2.111
					c17.104-0.728,34.208-0.833,51.313-0.585c17.104,0.221,34.208,0.941,51.313,1.483c17.104,0.532,34.208,0.794,51.313,0.545
					c17.104-0.191,34.208-0.627,51.313-1.289l51.313-2.17c34.208-1.509,68.417-2.087,102.625-1.415
					c17.104,0.332,34.208,1.028,51.313,1.945l51.313,2.88c17.104,0.875,34.208,1.499,51.313,1.751
					c17.104,0.238,34.208,0.171,51.313,0.24c68.417,0.127,136.833-0.038,205.25-0.992v3c-68.417-0.953-136.833-1.119-205.25-0.992
					c-17.104,0.07-34.208,0.003-51.313,0.24c-17.104,0.252-34.208,0.875-51.313,1.751l-51.313,2.88
					c-17.104,0.917-34.208,1.613-51.313,1.945c-34.208,0.671-68.417,0.094-102.625-1.415l-51.313-2.17
					c-17.104-0.662-34.208-1.098-51.313-1.289c-17.104-0.249-34.208,0.013-51.313,0.545c-17.104,0.542-34.208,1.262-51.313,1.483
					c-17.104,0.248-34.208,0.143-51.313-0.585c-17.104-0.686-34.208-1.752-51.313-2.111c-8.552-0.167-17.104-0.266-25.656-0.087
					c-8.552,0.177-17.104,0.732-25.656,1.341c-8.552,0.606-17.104,1.187-25.656,1.409c-8.552,0.237-17.104,0.209-25.656-0.127
					c-34.208-2.473-68.417-1.645-102.625-1.212l-51.313,0.95c-17.104,0.273-34.208,0.5-51.313,0.517
					c-34.208,0.152-68.417-0.482-102.625-1.377l-25.656-0.646l-25.656-0.534l-25.656-0.325c-8.552-0.07-17.104-0.098-25.656-0.09
					c-17.104,0.029-34.208,0.285-51.313,0.795l-51.313,1.548c-34.208,1.017-68.417,0.699-102.625,0.099
					c-17.104-0.331-34.208-0.759-51.313-1.428l-12.828-0.493l-12.828-0.607C-40.521,188.689-49.073,188.202-57.625,187.593z"/>
			</g>
			<g>
				<path style="fill:#395799;" d="M-57.625,141.593c8.552-0.609,17.104-1.096,25.656-1.515l12.828-0.607l12.828-0.493
					c17.104-0.669,34.208-1.097,51.313-1.428c34.208-0.6,68.417-0.918,102.625,0.099l51.313,1.548
					c17.104,0.51,34.208,0.766,51.313,0.795c8.552,0.008,17.104-0.02,25.656-0.09l25.656-0.325l25.656-0.534l25.656-0.646
					c34.208-0.895,68.417-1.529,102.625-1.377c17.104,0.017,34.208,0.244,51.313,0.517l51.313,0.95
					c34.208,0.433,68.417,1.26,102.625-1.212c8.552-0.336,17.104-0.364,25.656-0.127c8.552,0.223,17.104,0.804,25.656,1.409
					c8.552,0.609,17.104,1.165,25.656,1.341c8.552,0.179,17.104,0.079,25.656-0.087c17.104-0.359,34.208-1.425,51.313-2.111
					c17.104-0.728,34.208-0.833,51.313-0.585c17.104,0.221,34.208,0.941,51.313,1.483c17.104,0.532,34.208,0.794,51.313,0.545
					c17.104-0.191,34.208-0.627,51.313-1.289l51.313-2.17c34.208-1.509,68.417-2.087,102.625-1.415
					c17.104,0.332,34.208,1.029,51.313,1.945l51.313,2.88c17.104,0.875,34.208,1.499,51.313,1.751
					c17.104,0.238,34.208,0.171,51.313,0.24c68.417,0.127,136.833-0.038,205.25-0.992v3c-68.417-0.953-136.833-1.119-205.25-0.992
					c-17.104,0.07-34.208,0.003-51.313,0.24c-17.104,0.252-34.208,0.875-51.313,1.751l-51.313,2.88
					c-17.104,0.917-34.208,1.613-51.313,1.945c-34.208,0.671-68.417,0.093-102.625-1.415l-51.313-2.17
					c-17.104-0.662-34.208-1.098-51.313-1.289c-17.104-0.249-34.208,0.013-51.313,0.545c-17.104,0.542-34.208,1.262-51.313,1.483
					c-17.104,0.248-34.208,0.143-51.313-0.585c-17.104-0.686-34.208-1.752-51.313-2.111c-8.552-0.167-17.104-0.266-25.656-0.087
					c-8.552,0.177-17.104,0.732-25.656,1.341c-8.552,0.606-17.104,1.187-25.656,1.409c-8.552,0.237-17.104,0.209-25.656-0.127
					c-34.208-2.473-68.417-1.645-102.625-1.212l-51.313,0.95c-17.104,0.273-34.208,0.5-51.313,0.517
					c-34.208,0.152-68.417-0.482-102.625-1.377l-25.656-0.646l-25.656-0.534l-25.656-0.325c-8.552-0.07-17.104-0.098-25.656-0.089
					c-17.104,0.029-34.208,0.285-51.313,0.795l-51.313,1.547c-34.208,1.017-68.417,0.699-102.625,0.099
					c-17.104-0.331-34.208-0.759-51.313-1.428l-12.828-0.493l-12.828-0.607C-40.521,142.689-49.073,142.202-57.625,141.593z"/>
			</g>
			<g>
				<path style="fill:#395799;" d="M-57.625,95.593c8.552-0.609,17.104-1.096,25.656-1.515l12.828-0.607l12.828-0.493
					C10.792,92.31,27.896,91.881,45,91.55c34.208-0.6,68.417-0.918,102.625,0.099l51.313,1.548
					c17.104,0.51,34.208,0.765,51.313,0.795c8.552,0.008,17.104-0.02,25.656-0.09l25.656-0.325l25.656-0.534l25.656-0.646
					c34.208-0.895,68.417-1.529,102.625-1.377c17.104,0.017,34.208,0.244,51.313,0.517l51.313,0.95
					c34.208,0.432,68.417,1.26,102.625-1.212c8.552-0.336,17.104-0.364,25.656-0.127c8.552,0.223,17.104,0.804,25.656,1.409
					c8.552,0.609,17.104,1.165,25.656,1.341c8.552,0.179,17.104,0.08,25.656-0.087c17.104-0.359,34.208-1.425,51.313-2.111
					c17.104-0.728,34.208-0.833,51.313-0.585c17.104,0.221,34.208,0.941,51.313,1.483c17.104,0.532,34.208,0.794,51.313,0.545
					c17.104-0.191,34.208-0.627,51.313-1.289l51.313-2.17c34.208-1.509,68.417-2.087,102.625-1.415
					c17.104,0.332,34.208,1.028,51.313,1.945l51.313,2.88c17.104,0.875,34.208,1.499,51.313,1.751
					c17.104,0.238,34.208,0.171,51.313,0.24c68.417,0.127,136.833-0.038,205.25-0.992v3c-68.417-0.953-136.833-1.119-205.25-0.992
					c-17.104,0.069-34.208,0.003-51.313,0.24c-17.104,0.252-34.208,0.875-51.313,1.751l-51.313,2.88
					c-17.104,0.917-34.208,1.613-51.313,1.945c-34.208,0.671-68.417,0.093-102.625-1.415l-51.313-2.17
					c-17.104-0.662-34.208-1.098-51.313-1.289c-17.104-0.249-34.208,0.013-51.313,0.545c-17.104,0.542-34.208,1.262-51.313,1.483
					c-17.104,0.248-34.208,0.143-51.313-0.585c-17.104-0.686-34.208-1.752-51.313-2.111c-8.552-0.167-17.104-0.266-25.656-0.087
					c-8.552,0.177-17.104,0.732-25.656,1.341c-8.552,0.606-17.104,1.187-25.656,1.409c-8.552,0.237-17.104,0.209-25.656-0.126
					c-34.208-2.473-68.417-1.645-102.625-1.213l-51.313,0.95c-17.104,0.273-34.208,0.5-51.313,0.517
					c-34.208,0.152-68.417-0.482-102.625-1.377l-25.656-0.646l-25.656-0.534l-25.656-0.325c-8.552-0.07-17.104-0.098-25.656-0.09
					c-17.104,0.029-34.208,0.285-51.313,0.795l-51.313,1.547c-34.208,1.017-68.417,0.699-102.625,0.099
					c-17.104-0.331-34.208-0.759-51.313-1.428l-12.828-0.493l-12.828-0.607C-40.521,96.689-49.073,96.202-57.625,95.593z"/>
			</g>
			<g>
				<path style="fill:#395799;" d="M-57.625,49.593c8.552-0.609,17.104-1.096,25.656-1.515l12.828-0.607l12.828-0.493
					C10.792,46.31,27.896,45.881,45,45.55c34.208-0.6,68.417-0.918,102.625,0.099l51.313,1.547
					c17.104,0.51,34.208,0.766,51.313,0.795c8.552,0.008,17.104-0.02,25.656-0.09l25.656-0.325l25.656-0.534l25.656-0.646
					c34.208-0.895,68.417-1.529,102.625-1.377c17.104,0.017,34.208,0.244,51.313,0.517l51.313,0.95
					c34.208,0.432,68.417,1.26,102.625-1.212c8.552-0.336,17.104-0.364,25.656-0.126c8.552,0.222,17.104,0.803,25.656,1.409
					c8.552,0.609,17.104,1.165,25.656,1.341c8.552,0.179,17.104,0.079,25.656-0.087c17.104-0.359,34.208-1.425,51.313-2.111
					c17.104-0.728,34.208-0.833,51.313-0.585c17.104,0.221,34.208,0.941,51.313,1.483c17.104,0.532,34.208,0.794,51.313,0.545
					c17.104-0.191,34.208-0.627,51.313-1.289l51.313-2.17c34.208-1.509,68.417-2.087,102.625-1.415
					c17.104,0.332,34.208,1.028,51.313,1.945l51.313,2.88c17.104,0.875,34.208,1.499,51.313,1.751
					c17.104,0.237,34.208,0.171,51.313,0.24c68.417,0.127,136.833-0.038,205.25-0.992v3c-68.417-0.953-136.833-1.119-205.25-0.992
					c-17.104,0.069-34.208,0.003-51.313,0.24c-17.104,0.252-34.208,0.875-51.313,1.751l-51.313,2.88
					c-17.104,0.917-34.208,1.613-51.313,1.945c-34.208,0.671-68.417,0.094-102.625-1.415l-51.313-2.17
					c-17.104-0.662-34.208-1.098-51.313-1.289c-17.104-0.249-34.208,0.013-51.313,0.545c-17.104,0.542-34.208,1.262-51.313,1.483
					c-17.104,0.248-34.208,0.143-51.313-0.585c-17.104-0.686-34.208-1.752-51.313-2.111c-8.552-0.167-17.104-0.266-25.656-0.087
					c-8.552,0.177-17.104,0.732-25.656,1.341c-8.552,0.606-17.104,1.187-25.656,1.409c-8.552,0.237-17.104,0.209-25.656-0.127
					c-34.208-2.473-68.417-1.645-102.625-1.212l-51.313,0.95c-17.104,0.273-34.208,0.5-51.313,0.517
					c-34.208,0.152-68.417-0.482-102.625-1.377l-25.656-0.646l-25.656-0.534l-25.656-0.325c-8.552-0.07-17.104-0.098-25.656-0.09
					c-17.104,0.029-34.208,0.285-51.313,0.795l-51.313,1.548C113.417,54.554,79.208,54.236,45,53.636
					c-17.104-0.331-34.208-0.759-51.313-1.428l-12.828-0.493l-12.828-0.607C-40.521,50.689-49.073,50.202-57.625,49.593z"/>
			</g>
			<g>
				<path style="fill:#395799;" d="M-57.625,3.593c8.552-0.609,17.104-1.096,25.656-1.515l12.828-0.607l12.828-0.493
					C10.792,0.31,27.896-0.119,45-0.45c34.208-0.6,68.417-0.918,102.625,0.099l51.313,1.547c17.104,0.51,34.208,0.766,51.313,0.795
					c8.552,0.008,17.104-0.02,25.656-0.09l25.656-0.325l25.656-0.534l25.656-0.646C387.083-0.498,421.292-1.132,455.5-0.98
					c17.104,0.017,34.208,0.244,51.313,0.517l51.313,0.95c34.208,0.432,68.417,1.26,102.625-1.212
					c8.552-0.336,17.104-0.364,25.656-0.127c8.552,0.223,17.104,0.804,25.656,1.409c8.552,0.609,17.104,1.165,25.656,1.341
					c8.552,0.179,17.104,0.08,25.656-0.087c17.104-0.359,34.208-1.425,51.313-2.111C831.792-1.028,848.896-1.133,866-0.885
					c17.104,0.221,34.208,0.941,51.313,1.483c17.104,0.532,34.208,0.794,51.313,0.545c17.104-0.191,34.208-0.627,51.313-1.289
					l51.313-2.17c34.208-1.509,68.417-2.087,102.625-1.415c17.104,0.332,34.208,1.028,51.313,1.945l51.313,2.88
					c17.104,0.875,34.208,1.499,51.313,1.751c17.104,0.238,34.208,0.171,51.313,0.24c68.417,0.127,136.833-0.038,205.25-0.992v3
					c-68.417-0.953-136.833-1.119-205.25-0.992c-17.104,0.07-34.208,0.003-51.313,0.24c-17.104,0.252-34.208,0.875-51.313,1.751
					l-51.313,2.88c-17.104,0.917-34.208,1.613-51.313,1.945c-34.208,0.671-68.417,0.093-102.625-1.415l-51.313-2.17
					c-17.104-0.662-34.208-1.098-51.313-1.289c-17.104-0.249-34.208,0.013-51.313,0.545C900.208,7.131,883.104,7.85,866,8.071
					c-17.104,0.248-34.208,0.143-51.313-0.585c-17.104-0.686-34.208-1.752-51.313-2.111c-8.552-0.167-17.104-0.266-25.656-0.087
					c-8.552,0.177-17.104,0.732-25.656,1.341c-8.552,0.606-17.104,1.187-25.656,1.409c-8.552,0.237-17.104,0.209-25.656-0.127
					C626.542,5.439,592.333,6.267,558.125,6.7l-51.313,0.95c-17.104,0.273-34.208,0.5-51.313,0.517
					c-34.208,0.152-68.417-0.482-102.625-1.377l-25.656-0.646l-25.656-0.534l-25.656-0.325c-8.552-0.07-17.104-0.098-25.656-0.09
					c-17.104,0.029-34.208,0.285-51.313,0.795l-51.313,1.547C113.417,8.554,79.208,8.236,45,7.636
					C27.896,7.305,10.792,6.877-6.313,6.208l-12.828-0.493l-12.828-0.607C-40.521,4.689-49.073,4.202-57.625,3.593z"/>
			</g>
			<g>
				<path style="fill:#395799;" d="M1584.375,164.593c-8.552,0.609-17.104,1.096-25.656,1.515l-12.828,0.607l-12.828,0.493
					c-17.104,0.669-34.208,1.097-51.313,1.428c-34.208,0.6-68.417,0.918-102.625-0.099l-51.313-1.547
					c-17.104-0.51-34.208-0.766-51.313-0.795c-8.552-0.008-17.104,0.02-25.656,0.089l-25.656,0.325l-25.656,0.534l-25.656,0.646
					c-34.208,0.895-68.417,1.529-102.625,1.377c-17.104-0.017-34.208-0.244-51.313-0.517l-51.313-0.95
					c-34.208-0.432-68.417-1.26-102.625,1.212c-8.552,0.336-17.104,0.364-25.656,0.127c-8.552-0.223-17.104-0.804-25.656-1.409
					c-8.552-0.609-17.104-1.165-25.656-1.341c-8.552-0.179-17.104-0.079-25.656,0.087c-17.104,0.359-34.208,1.425-51.313,2.111
					c-17.104,0.728-34.208,0.833-51.313,0.585c-17.104-0.221-34.208-0.941-51.313-1.483c-17.104-0.532-34.208-0.794-51.313-0.545
					c-17.104,0.191-34.208,0.627-51.313,1.289l-51.313,2.17c-34.208,1.509-68.417,2.087-102.625,1.415
					c-17.104-0.332-34.208-1.029-51.313-1.945l-51.313-2.88c-17.104-0.875-34.208-1.499-51.313-1.751
					c-17.104-0.238-34.208-0.171-51.313-0.24c-68.417-0.127-136.833,0.038-205.25,0.992v-3c68.417,0.953,136.833,1.119,205.25,0.992
					c17.104-0.069,34.208-0.003,51.313-0.24c17.104-0.252,34.208-0.875,51.313-1.751l51.313-2.88
					c17.104-0.917,34.208-1.613,51.313-1.945c34.208-0.671,68.417-0.093,102.625,1.415l51.313,2.17
					c17.104,0.662,34.208,1.098,51.313,1.289c17.104,0.249,34.208-0.013,51.313-0.545c17.104-0.542,34.208-1.262,51.313-1.483
					c17.104-0.248,34.208-0.143,51.313,0.585c17.104,0.686,34.208,1.752,51.313,2.111c8.552,0.167,17.104,0.266,25.656,0.087
					c8.552-0.177,17.104-0.732,25.656-1.341c8.552-0.606,17.104-1.187,25.656-1.409c8.552-0.237,17.104-0.209,25.656,0.127
					c34.208,2.473,68.417,1.645,102.625,1.212l51.313-0.95c17.104-0.273,34.208-0.5,51.313-0.517
					c34.208-0.152,68.417,0.482,102.625,1.377l25.656,0.646l25.656,0.534l25.656,0.325c8.552,0.07,17.104,0.098,25.656,0.089
					c17.104-0.029,34.208-0.285,51.313-0.795l51.313-1.547c34.208-1.017,68.417-0.699,102.625-0.099
					c17.104,0.331,34.208,0.759,51.313,1.428l12.828,0.493l12.828,0.607C1567.271,163.497,1575.823,163.984,1584.375,164.593z"/>
			</g>
			<g>
				<path style="fill:#395799;" d="M1584.375,118.593c-8.552,0.609-17.104,1.096-25.656,1.515l-12.828,0.607l-12.828,0.493
					c-17.104,0.669-34.208,1.097-51.313,1.428c-34.208,0.6-68.417,0.918-102.625-0.099l-51.313-1.547
					c-17.104-0.51-34.208-0.766-51.313-0.795c-8.552-0.008-17.104,0.02-25.656,0.09l-25.656,0.325l-25.656,0.534l-25.656,0.646
					c-34.208,0.895-68.417,1.529-102.625,1.377c-17.104-0.017-34.208-0.244-51.313-0.517l-51.313-0.95
					c-34.208-0.432-68.417-1.26-102.625,1.213c-8.552,0.336-17.104,0.364-25.656,0.127c-8.552-0.223-17.104-0.804-25.656-1.409
					c-8.552-0.609-17.104-1.165-25.656-1.341c-8.552-0.179-17.104-0.079-25.656,0.087c-17.104,0.359-34.208,1.425-51.313,2.111
					c-17.104,0.728-34.208,0.833-51.313,0.585c-17.104-0.221-34.208-0.941-51.313-1.483c-17.104-0.532-34.208-0.794-51.313-0.545
					c-17.104,0.191-34.208,0.627-51.313,1.289l-51.313,2.17c-34.208,1.509-68.417,2.087-102.625,1.415
					c-17.104-0.332-34.208-1.028-51.313-1.945l-51.313-2.88c-17.104-0.875-34.208-1.499-51.313-1.751
					c-17.104-0.238-34.208-0.171-51.313-0.24c-68.417-0.127-136.833,0.038-205.25,0.992v-3c68.417,0.953,136.833,1.119,205.25,0.992
					c17.104-0.07,34.208-0.003,51.313-0.24c17.104-0.252,34.208-0.875,51.313-1.751l51.313-2.88
					c17.104-0.917,34.208-1.613,51.313-1.945c34.208-0.671,68.417-0.094,102.625,1.415l51.313,2.17
					c17.104,0.662,34.208,1.098,51.313,1.289c17.104,0.249,34.208-0.013,51.313-0.545c17.104-0.542,34.208-1.262,51.313-1.483
					c17.104-0.248,34.208-0.143,51.313,0.585c17.104,0.686,34.208,1.752,51.313,2.111c8.552,0.167,17.104,0.266,25.656,0.087
					c8.552-0.177,17.104-0.732,25.656-1.341c8.552-0.606,17.104-1.187,25.656-1.409c8.552-0.237,17.104-0.209,25.656,0.127
					c34.208,2.473,68.417,1.645,102.625,1.212l51.313-0.95c17.104-0.273,34.208-0.5,51.313-0.517
					c34.208-0.152,68.417,0.482,102.625,1.377l25.656,0.646l25.656,0.534l25.656,0.325c8.552,0.07,17.104,0.098,25.656,0.09
					c17.104-0.029,34.208-0.285,51.313-0.795l51.313-1.548c34.208-1.017,68.417-0.699,102.625-0.099
					c17.104,0.331,34.208,0.759,51.313,1.428l12.828,0.493l12.828,0.607C1567.271,117.497,1575.823,117.984,1584.375,118.593z"/>
			</g>
			<g>
				<path style="fill:#395799;" d="M1584.375,72.593c-8.552,0.609-17.104,1.096-25.656,1.515l-12.828,0.607l-12.828,0.493
					c-17.104,0.669-34.208,1.097-51.313,1.428c-34.208,0.6-68.417,0.918-102.625-0.099l-51.313-1.548
					c-17.104-0.51-34.208-0.766-51.313-0.795c-8.552-0.008-17.104,0.02-25.656,0.09l-25.656,0.325l-25.656,0.534l-25.656,0.646
					c-34.208,0.895-68.417,1.529-102.625,1.377c-17.104-0.017-34.208-0.244-51.313-0.517l-51.313-0.95
					c-34.208-0.432-68.417-1.26-102.625,1.212c-8.552,0.336-17.104,0.364-25.656,0.127c-8.552-0.222-17.104-0.803-25.656-1.409
					c-8.552-0.609-17.104-1.165-25.656-1.341c-8.552-0.179-17.104-0.08-25.656,0.087c-17.104,0.359-34.208,1.425-51.313,2.111
					c-17.104,0.728-34.208,0.833-51.313,0.585c-17.104-0.221-34.208-0.941-51.313-1.483c-17.104-0.532-34.208-0.794-51.313-0.545
					c-17.104,0.191-34.208,0.627-51.313,1.289l-51.313,2.17c-34.208,1.509-68.417,2.087-102.625,1.415
					c-17.104-0.332-34.208-1.028-51.313-1.945l-51.313-2.88c-17.104-0.875-34.208-1.499-51.313-1.751
					c-17.104-0.238-34.208-0.171-51.313-0.24c-68.417-0.127-136.833,0.038-205.25,0.992v-3c68.417,0.953,136.833,1.119,205.25,0.992
					c17.104-0.07,34.208-0.003,51.313-0.24c17.104-0.252,34.208-0.875,51.313-1.751l51.313-2.88
					c17.104-0.917,34.208-1.613,51.313-1.945c34.208-0.671,68.417-0.094,102.625,1.415l51.313,2.17
					c17.104,0.662,34.208,1.098,51.313,1.289c17.104,0.249,34.208-0.013,51.313-0.545c17.104-0.542,34.208-1.262,51.313-1.483
					c17.104-0.248,34.208-0.143,51.313,0.585c17.104,0.686,34.208,1.752,51.313,2.111c8.552,0.167,17.104,0.266,25.656,0.087
					c8.552-0.177,17.104-0.732,25.656-1.341c8.552-0.606,17.104-1.187,25.656-1.409c8.552-0.237,17.104-0.209,25.656,0.127
					c34.208,2.473,68.417,1.645,102.625,1.213l51.313-0.95c17.104-0.273,34.208-0.5,51.313-0.517
					c34.208-0.152,68.417,0.482,102.625,1.377l25.656,0.646l25.656,0.534l25.656,0.325c8.552,0.07,17.104,0.098,25.656,0.09
					c17.104-0.029,34.208-0.285,51.313-0.795l51.313-1.547c34.208-1.017,68.417-0.699,102.625-0.099
					c17.104,0.331,34.208,0.759,51.313,1.428l12.828,0.493l12.828,0.607C1567.271,71.497,1575.823,71.984,1584.375,72.593z"/>
			</g>
			<g>
				<path style="fill:#395799;" d="M1584.375,26.593c-8.552,0.609-17.104,1.096-25.656,1.515l-12.828,0.607l-12.828,0.493
					c-17.104,0.669-34.208,1.097-51.313,1.428c-34.208,0.6-68.417,0.918-102.625-0.099l-51.313-1.548
					c-17.104-0.51-34.208-0.766-51.313-0.795c-8.552-0.008-17.104,0.02-25.656,0.09l-25.656,0.325l-25.656,0.534l-25.656,0.646
					c-34.208,0.895-68.417,1.529-102.625,1.377c-17.104-0.017-34.208-0.244-51.313-0.517l-51.313-0.95
					c-34.208-0.433-68.417-1.26-102.625,1.212c-8.552,0.336-17.104,0.364-25.656,0.127c-8.552-0.223-17.104-0.804-25.656-1.409
					c-8.552-0.609-17.104-1.165-25.656-1.341c-8.552-0.179-17.104-0.08-25.656,0.087c-17.104,0.359-34.208,1.425-51.313,2.111
					c-17.104,0.728-34.208,0.833-51.313,0.585c-17.104-0.221-34.208-0.941-51.313-1.483c-17.104-0.532-34.208-0.794-51.313-0.545
					c-17.104,0.191-34.208,0.627-51.313,1.289l-51.313,2.17c-34.208,1.509-68.417,2.087-102.625,1.415
					c-17.104-0.332-34.208-1.028-51.313-1.945l-51.313-2.88c-17.104-0.875-34.208-1.499-51.313-1.751
					c-17.104-0.238-34.208-0.171-51.313-0.24c-68.417-0.127-136.833,0.038-205.25,0.992v-3c68.417,0.953,136.833,1.119,205.25,0.992
					c17.104-0.069,34.208-0.003,51.313-0.24c17.104-0.252,34.208-0.875,51.313-1.751l51.313-2.88
					c17.104-0.917,34.208-1.613,51.313-1.945c34.208-0.671,68.417-0.094,102.625,1.415l51.313,2.17
					c17.104,0.662,34.208,1.098,51.313,1.289c17.104,0.249,34.208-0.013,51.313-0.545c17.104-0.542,34.208-1.262,51.313-1.483
					c17.104-0.248,34.208-0.143,51.313,0.585c17.104,0.686,34.208,1.752,51.313,2.111c8.552,0.167,17.104,0.266,25.656,0.087
					c8.552-0.177,17.104-0.732,25.656-1.341c8.552-0.606,17.104-1.187,25.656-1.409c8.552-0.237,17.104-0.209,25.656,0.127
					c34.208,2.473,68.417,1.645,102.625,1.212l51.313-0.95c17.104-0.273,34.208-0.5,51.313-0.517
					c34.208-0.151,68.417,0.482,102.625,1.377l25.656,0.646l25.656,0.534l25.656,0.325c8.552,0.07,17.104,0.098,25.656,0.09
					c17.104-0.029,34.208-0.285,51.313-0.795l51.313-1.547c34.208-1.017,68.417-0.699,102.625-0.099
					c17.104,0.331,34.208,0.759,51.313,1.428l12.828,0.493l12.828,0.607C1567.271,25.497,1575.823,25.984,1584.375,26.593z"/>
			</g>
		</g>
	</g>
</g>
<g id="OBJECTS">
	
		<text transform="matrix(1 0 0 1 56.3154 400.9629)" style="fill:#395799; font-family:'Montserrat-Bold'; font-size:25.1853px; letter-spacing:1;">wavy lines</text>
	
		<text transform="matrix(1 0 0 1 56.3154 428.6152)" style="fill:#395799; font-family:'Montserrat-Regular'; font-size:19px; letter-spacing:7;">banner</text>
</g>
</svg>
